<?xml version="1.0" encoding="utf-8"?>
<!-- Generator: Adobe Illustrator 26.3.1, SVG Export Plug-In . SVG Version: 6.00 Build 0)  -->
<svg version="1.1" id="Layer_1" xmlns="http://www.w3.org/2000/svg" xmlns:xlink="http://www.w3.org/1999/xlink" x="0px" y="0px"
	 viewBox="0 0 400 400" style="enable-background:new 0 0 400 400;" xml:space="preserve">
<path d="M126.1,201c0-4.4,0-8.8,0-13.1c0-3.4,1.6-5,5-5c7.7,0,15.4,0,23.1,0.1c1.2,0,2.9,0.2,3.4,1c2.9,4.3,7.1,3.6,11.2,3.6
	c3.9,0,7.9,0.1,11.8-0.1c1.6-0.1,3.9-0.2,4.6-1.2c2.6-4,6.4-3.3,10.1-3.3c3.5,0,7.1-0.1,10.6,0.1c1.8,0.1,4.3,0.3,5.2,1.4
	c2.6,3.4,6,3.2,9.6,3.1c3.5-0.1,7.1-0.1,10.6,0c3.6,0.1,6.9-0.1,9.8-3c1.1-1.1,3.4-1.5,5.2-1.5c6.9-0.2,13.7-0.2,20.6,0
	c5.2,0.1,6.1,0.9,6.3,6.3c0.2,8.3,0,16.7,0,25c0,3.5-1.7,5.5-5.3,5.5c-7.9,0-15.8,0-23.7-0.1c-1,0-2.2-0.3-2.9-0.8
	c-7.8-6.2-16.7-2.8-25.2-2.8c-0.6,0-1.4,0.2-1.8,0.6c-6.8,6.7-15.3,3.2-23.1,3.7c-1.3,0.1-3.2-0.6-3.8-1.6c-2.1-3.2-5-3.2-8.2-3.1
	c-3.9,0.1-7.9,0-11.8-0.1c-3.2-0.1-6.1,0.1-8.6,2.7c-1,1-3,1.5-4.5,1.6c-7.5,0.2-15,0-22.4,0.1c-3.9,0-5.7-1.8-5.6-5.7
	C126.1,209.8,126.1,205.4,126.1,201C126.1,201,126.1,201,126.1,201z"/>
<path d="M93.6,192.8c0.2-1.1,0.7-3.1,0.8-5c0.2-3.1,1.7-4.7,4.7-4.7c6-0.1,12.1-0.1,18.1-0.1c2.8,0,4.1,1.6,4.2,4.3
	c0,9.2,0.1,18.4,0.1,27.5c0,3.3-1.8,4.9-5.1,5c-5.6,0-11.2,0-16.8,0.1c-3.4,0-4.6-1.8-4.9-5c-0.6-6.5-0.8-6.4-7.4-6.4
	c-3.9,0-7.9,0-11.9-0.1c-3,0-4.7-1.4-4.8-4.5c0-0.2,0-0.4,0-0.6c-0.9-9.5,0-10.4,9.5-10.5C84.2,192.8,88.5,192.8,93.6,192.8z"/>
<path d="M305,192.8c-0.2-1.1-0.7-3.1-0.8-5c-0.2-3.1-1.7-4.7-4.7-4.7c-6-0.1-12.1-0.1-18.1-0.1c-2.8,0-4.1,1.6-4.2,4.3
	c0,9.2-0.1,18.4-0.1,27.5c0,3.3,1.8,4.9,5.1,5c5.6,0,11.2,0,16.8,0.1c3.4,0,4.6-1.8,4.9-5c0.6-6.5,0.8-6.4,7.4-6.4
	c3.9,0,7.9,0,11.9-0.1c3,0,4.7-1.4,4.8-4.5c0-0.2,0-0.4,0-0.6c0.9-9.5,0-10.4-9.5-10.5C314.4,192.8,310.1,192.8,305,192.8z"/>
<path d="M159.6,280.6c2.8,1.6,5.6,3,8.2,4.7c9.1,5.7,18.2,11.5,27.3,17.3c2.9,1.8,5.6,1.8,8.7,0c11-6.6,22.2-12.9,33.4-19.4
	c3.6-2.1,5.6-1.8,7.3,1.2c1.9,3.5-0.5,4.8-3,6.2c-12.5,7.4-25,14.8-37.4,22.4c-2.8,1.7-5.1,2.2-8,0.3c-12.3-7.7-24.8-15.2-37.1-22.9
	c-4.2-2.6-4.8-5.3-2.1-8C157.6,281.7,158.6,281.2,159.6,280.6z"/>
<path d="M202.6,85.5c2.3,1.2,4.2,2.1,5.9,3.1c10.4,6.5,20.7,13,31.2,19.4c2.6,1.6,3.7,3.2,2.5,6c-1.4,3.3-4,3.5-6.7,1.9
	c-6.3-3.7-12.4-7.6-18.6-11.3c-3.4-2-6.7-4.2-10.2-6c-4.7-2.5-9.1-1.3-13.5,1.5c-7.7,4.9-15.6,9.5-23.4,14.2
	c-1.8,1.1-3.7,1.9-5.7,2.6c-2,0.8-4.4,2.5-5.8-0.8c-1.2-2.8-0.5-5.4,2.2-7c3.2-1.9,6.6-3.5,9.8-5.4c8.8-5.1,17.5-10.3,26.3-15.4
	C198.6,87.1,200.7,86.4,202.6,85.5z"/>
<path d="M373.2,185.2c-3.2,0.2-6.5,0.6-9.7,0.6c-14.1,0-28.2-0.1-42.4-0.3c-6.4-0.1-7.2-1-7.2-7.3c0-5.2,0.6-5.9,5.5-6.2
	c2.9-0.2,5.8-0.2,8.7-0.2c3.7,0,7.1-0.7,9.3-4c1.8-2.5,4-2.7,6.5-1.4c4,2.1,8.1,4.2,12,6.5c5.9,3.4,11.6,7,17.4,10.5
	C373.4,184.1,373.3,184.7,373.2,185.2z"/>
<path d="M27,183.9c5.9-3.7,11.8-7.4,17.7-11.2c3.2-2,6.4-3.9,9.5-5.9c3.3-2,6.4-2,8.7,1.5c1.8,2.9,4.4,3.5,7.5,3.4
	c3.5,0,7.1,0,10.6,0.1c2.8,0.1,4.2,1.5,4.2,4.3c0,1.5,0,2.9,0,4.4c0.1,4-2.3,4.9-5.6,4.9c-7.3,0-14.6,0-21.8,0
	c-10.1,0-20.3,0-30.4,0C27.3,185,27.1,184.5,27,183.9z"/>
<path d="M373.3,216.5c-1.4,1.8-1.7,2.6-2.3,2.9c-8.2,4.4-16.3,9-24.6,13c-3.4,1.7-6.9,1.9-9.9-2.1c-1.3-1.8-4.6-2.4-7.1-2.8
	c-3.5-0.5-7-0.1-10.5-0.2c-3.6-0.1-5.2-1.9-5-5.6c0.1-3.3,1.1-5.7,4.9-5.7c1.4,0,2.9-0.1,4.3-0.1c14.3,0,28.6,0,42.9,0
	C368,216.1,370,216.3,373.3,216.5z"/>
<path d="M28.6,217c1.9-0.4,3.2-0.9,4.5-0.9c15.4-0.1,30.8-0.2,46.1-0.1c5,0,6,1.2,6.1,5.8c0,4.3-1,5.4-5.5,5.7
	c-2.7,0.1-5.4,0.1-8.1,0c-3.4-0.1-6.4,0.3-8.6,3.7c-2.1,3.2-5.8,2.5-8.5,1.1c-8.2-4-16.2-8.5-24.2-12.8
	C29.7,219.1,29.4,218.2,28.6,217z"/>
<path d="M103.4,148.7c0.7-5,2.8-8.2,6.5-10.3c10.8-6.1,21.6-12.2,32.4-18.3c3.3-1.8,5.1-1.1,7,2.3c1.9,3.4-0.7,4.2-2.9,5.5
	c-9.3,5.4-18.7,10.7-27.8,16.4c-2.3,1.4-4.2,3.9-5.7,6.3c-1.4,2.1-2.3,5.3-5.2,4C105.7,153.7,104.8,150.7,103.4,148.7z"/>
<path d="M297.4,148.2c-0.1,1,0.1,2.3-0.5,3c-0.9,1.3-2.1,2.9-3.3,3.1c-1.2,0.2-3.5-1.2-3.7-2.2c-0.9-3.5-3.4-5-6.1-6.6
	c-9.9-6-19.7-12.1-29.6-18.2c-3.8-2.3-4.8-4.4-2.3-6.6c1.2-1.1,3.7-1.5,5.4-1.2c2.6,0.6,5,1.9,7.3,3.3c9.5,5.8,19,11.7,28.4,17.6
	C295.9,142.3,297.8,144.6,297.4,148.2z"/>
<path d="M296.6,251.8c0.5,4.9-1.5,8.4-6.5,11c-10.1,5.2-19.8,11.1-29.6,16.8c-1.9,1.1-3.8,2.3-5.5,0c-1.6-2.3-1.5-4.7,0.5-6.8
	c0.7-0.7,1.6-1.3,2.5-1.8c7.4-4.2,14.8-8.4,22.1-12.6c4.5-2.6,9.2-4.8,9.1-11.4c0-1.2,2.1-3.1,3.6-3.4c2.5-0.5,3.5,1.7,3.7,3.9
	C296.7,248.9,296.6,250.1,296.6,251.8z"/>
<path d="M103.8,250.5c0.1-1.2-0.2-2.8,0.4-3.7c1-1.3,2.5-2.8,4-3c1-0.1,3.2,1.8,3.3,2.8c0.1,5.2,3.7,6.8,7.5,8.9
	c8.3,4.7,16.4,9.7,24.4,14.8c1.4,0.9,2.8,2.6,3.3,4.2c0.9,2.9-1,4.9-4,4.5c-1.4-0.2-2.9-0.7-4.1-1.4c-10.4-6.4-20.8-12.8-31.2-19.2
	C104.3,256.6,103.4,253.8,103.8,250.5z"/>
</svg>
