<?xml version="1.0" encoding="utf-8"?>
<!-- Generator: Adobe Illustrator 26.3.1, SVG Export Plug-In . SVG Version: 6.00 Build 0)  -->
<svg version="1.1" id="Layer_1" xmlns="http://www.w3.org/2000/svg" xmlns:xlink="http://www.w3.org/1999/xlink" x="0px" y="0px"
	 viewBox="0 0 400 400" style="enable-background:new 0 0 400 400;" xml:space="preserve">
<path d="M68.2,145.8c6.9,3.1,12.6,5,17.4,8.1c2,1.3,3.2,5.3,3.2,8.1c0.2,26,0.5,52.1,0,78.1c-0.2,9,2.2,14.6,10.8,19
	c15.4,7.9,29.9,17.5,45,26c14.9,8.4,30.1,16.4,45.2,24.4c1.5,0.8,4.1,1.1,5.5,0.3c11.8-6.4,23.5-13.1,35.3-19.7
	c12.5-7,25.2-13.9,37.7-21c4-2.3,7.4-2.2,11.4,0.4c8.4,5.4,17.2,10.2,27.4,16.2c-7.3,4.3-13.4,8-19.7,11.4
	c-19,10.5-38.1,20.9-57,31.4c-11.2,6.2-22,13-33.4,18.7c-2.6,1.3-7.3,0.4-10.1-1.1c-19.8-10.4-39.4-21.2-58.9-32.1
	c-14.9-8.3-29.6-17.1-44.5-25.6c-1.4-0.8-2.6-2-4.1-2.4c-10-2.7-11.9-9.2-11.8-19c0.6-37.9,0.2-75.8,0.1-113.7
	C67.6,151.5,67.9,149.5,68.2,145.8z"/>
<path d="M193,52.8c38,0,76,0,114.1,0c10.6,0,10.6,0,10.6,10.8c0,38.3,0,76.7,0,115c0,7-3.3,12.3-7.9,12.4
	c-6.8,0.2-13.5-6.2-13.5-13.2c0-31.3,0-62.5-0.1-93.8c0-9.6-0.3-10-10-10c-61.6,0-123.2-0.3-184.8,0.2c-11.8,0.1-20.7-4.9-29.6-10.6
	c-2.1-1.4-2.6-5.3-3.8-8.1c2.6-1,5.1-2.9,7.7-2.9c39.2-0.2,78.3-0.1,117.5-0.1C193,52.6,193,52.7,193,52.8z"/>
<path d="M41,58.3c10.5,5.6,19.7,10.5,28.8,15.5c18.9,10.2,37.8,20.5,56.7,30.7c8.8,4.7,10.1,10.3,4.3,20
	c-4.3,7.2-8.9,14.4-13.4,21.4c-4.8,7.4-10.3,8.8-18.1,4.7c-12.7-6.7-25.1-14-38.2-19.7c-8.2-3.6-9.1-10.3-10.5-16.9
	C47,98.2,44.1,82.3,41,66.4C40.7,64.4,41,62.2,41,58.3z"/>
<path d="M223.8,159.1c3.8,1.1,6.4,1.4,8.5,2.5c12,6.2,23.8,12.5,35.7,18.8c8.3,4.4,16.6,8.6,24.7,13.2c7.2,4,7.4,4.9,3.3,12.3
	c-5.7,10.1-11.5,20.2-17.5,30.2c-4,6.6-5.7,6.6-12.7,2.9c-18.8-9.9-37.7-19.5-56.5-29.4c-3.1-1.7-6.3-4.1-8.2-7
	c-1.3-1.9-1.7-5.8-0.7-7.9c5.3-10.3,11-20.5,17-30.4C218.9,161.9,221.9,160.6,223.8,159.1z"/>
<path d="M286.6,256.9c-4.9-19,11.1-30.1,16.8-45c0.9-2.3,2.7-4.2,4.2-6.2c4.4-6,11.7-8.2,18.2-4.9c7.3,3.7,14.6,7.5,21.5,12
	c2.7,1.8,4.2,5.4,6.1,8.3c0.6,0.9,0.2,2.5,0.8,3.3c6.6,8.2,2.8,15.1-2.1,22.3c-4.1,6-7.5,12.5-11.2,18.8c-0.1,0.2-0.2,0.4-0.3,0.6
	c-5.3,8.3-27.9,12.6-36.1,7.1c-3.6-2.4-7.4-4.6-11.4-6.1C288,265,285.3,262.2,286.6,256.9z"/>
<path d="M210.3,157c-0.7,1.9-1,3.1-1.5,4c-5.2,9-10.5,18-15.7,27.1c-1.6,2.8-3.3,3.8-6.6,2c-19.6-10.2-39.3-20.3-59.1-30.3
	c-3.9-2-4.1-4.9-2.4-8c5.2-9.3,10.7-18.5,16.4-27.5c0.7-1.2,4.3-1.9,5.7-1.1c15.3,8.1,30.3,16.5,45.6,24.7c4.2,2.3,8.7,3.9,13,6
	C207.4,154.7,208.8,156,210.3,157z"/>
<path d="M163.3,112c4.6,2.3,8.7,4.2,12.7,6.4c9.1,4.8,18.1,9.6,27.2,14.4c3,1.6,5.1,3.4,3.2,7c-2.1,3.8-4.6,2.8-7.9,0.9
	c-11.5-6.5-23.3-12.5-34.9-18.7c-1-0.5-2.4-0.9-2.9-1.7c-1.1-1.8-2.4-3.9-2.1-5.7C158.7,113.4,161.7,112.8,163.3,112z"/>
</svg>
