<?xml version="1.0" encoding="utf-8"?>
<!-- Generator: Adobe Illustrator 26.3.1, SVG Export Plug-In . SVG Version: 6.00 Build 0)  -->
<svg version="1.1" id="Layer_1" xmlns="http://www.w3.org/2000/svg" xmlns:xlink="http://www.w3.org/1999/xlink" x="0px" y="0px"
	 viewBox="0 0 400 400" style="enable-background:new 0 0 400 400;" xml:space="preserve">
<path d="M185.2,165.8c1.9-2.8,4.1-5.4,5.5-8.5c6.5-13.7,6.8-27.9,1.6-42c-1.8-4.8-1.1-7.6,3.6-10.3c16.9-9.5,33.5-19.4,50.2-29.2
	c10.7-6.3,21.1-12.9,33.4-16.1c6-1.6,11-2.4,17.2,0.3c13.8,6,28.1,10.9,42.2,16.3c0.6,0.2,1.1,1,2.8,2.5c-5.1,3.5-9.6,7-14.6,9.9
	c-18,10.5-36.2,20.8-54.3,31.1c-5.8,3.3-11.7,6.5-17.5,9.8c-17.3,10.2-34.5,20.5-51.9,30.6c-5.4,3.1-10.8,6.6-17.1,7.5
	C185.9,166.9,185.6,166.3,185.2,165.8z"/>
<path d="M374.9,134.8c0,4,0.2,6,0,7.9c-2,14.3-4.3,28.6-6,43c-0.8,6.5-4.3,10.7-8.9,14.8c-14.7,13-32.6,20.9-49.1,31.1
	c-9.7,6-19.9,11.3-29.7,17.1c-4.6,2.7-7.5,1.1-11.1-2.1c-10.7-9.5-22.2-17.7-37-19.3c-3.5-0.4-7.1-0.1-11-1
	c14.8-13.2,32.8-21,49.3-31.1c17-10.3,34.5-19.8,51.7-29.8C339.8,155.7,356.5,145.7,374.9,134.8z"/>
<path d="M79.7,231.1c-0.3-4.8-0.5-7.3-0.5-9.7c0-26,0.1-51.9-0.2-77.8c-0.1-7.8,2.1-13.1,9.3-16.9c20.1-10.9,39.8-22.3,59.7-33.7
	c12.3-7,24.5-14.1,36.7-21.3c5.1-3,9.7-4.4,14.9,0.3c3,2.7,7.2,4.1,12.6,7.1c-4.6,3.5-7.9,6.3-11.5,8.5c-4.9,2.9-10.3,5.1-15.1,8.2
	c-3.7,2.3-6.9,5.5-10.4,8.2c-1.3,1.1-2.5,2.5-4,3.3c-12.3,6.9-24.8,13.7-37.1,20.7c-8.9,5-17.5,10.5-26.3,15.6
	c-4.3,2.5-5,6.4-5,10.8c0,17.7-0.3,35.4,0.1,53.1c0.2,7.9-1.5,13.5-9.5,16.3C89.1,225.3,85.3,228.1,79.7,231.1z"/>
<path d="M302.4,251.3c3,8.2,2.5,10.6-3.4,14c-18.7,10.8-37.5,21.3-56.2,32.2c-15.6,9.1-31.1,18.5-46.8,27.5c-1.9,1.1-5.4,1.1-7.3,0
	c-16.5-9.2-32.7-18.8-49.1-28.1c-2.4-1.4-5.1-2.1-7.3-3.6c-4-2.6-7.8-5.5-13-9.2c8.2-4.6,14.5-8.5,21.1-11.5
	c1.7-0.8,4.8,0.6,6.8,1.7c11.1,6.1,22.1,12.4,32.9,18.8c11.6,6.9,16.2,6.6,26.8-1.9c2.3-1.9,4.7-3.7,7.2-5.1
	c13.2-7.4,26.5-14.5,39.6-22.2c5.3-3.1,9.8-5.5,15.1,0.1c3.1,3.2,7.5,2.1,11.2,0.1c5.9-3.2,11.6-6.7,17.4-10.1
	C299,253.2,300.5,252.4,302.4,251.3z"/>
<path d="M178.6,232.7c-2.2,2.3-3.4,4.2-5.1,5.2c-13.8,7.9-27.7,15.5-41.4,23.4c-10.1,5.8-20,11.8-30,17.8c-6.4,3.8-9,3.1-12.6-3.2
	c-3.8-6.7-7.5-13.4-11.3-20.1c-2.7-4.9-2.2-6.7,2.7-9.6c23.8-13.8,47.7-27.5,71.4-41.6c4.4-2.6,4.8-2.6,4.8-2.6
	S173.1,223.5,178.6,232.7z"/>
<path d="M92.4,296.9c-8.7,5.4-15.6,9.7-22.6,14c-2.9,1.8-5.4,2.1-8.9,0.1c-2.5-1.4-6.5-0.8-9.7-0.2c-3.1,0.6-5.9,1.5-7.8-1.9
	c-5.5-9.8-10.9-19.6-16.3-29.4c-0.3-0.6-0.2-1.5-0.3-2.8c1.4-1,3.2-1.9,4.3-3.4c1.5-2,2.5-4.4,3.4-6.8c0.9-2.2,0.6-5.5,2.1-6.6
	c7.5-5.2,15.3-9.9,23.6-15.1C75,260.4,81.7,279.5,92.4,296.9z"/>
<path d="M198.8,189.6c-0.7-1.8-2.1-3.6-2-5.4c0.1-2.2,0.7-5.2,2.2-6.2c5.6-3.7,11.5-7,17.5-9.8c1.7-0.8,5.7-0.3,6.5,0.9
	c6,9.3,11.5,19,17.5,29.3c-2.7,1.8-4.9,3.3-7.1,4.6c-3.2,1.9-6.6,3.5-9.8,5.4c-8.4,5.1-8.4,5.2-17.1-1.5c1.2,3.6,2.6,6,2.6,8.5
	c0,2.1-1.1,5.1-2.7,5.9c-1.5,0.8-5.2-0.1-6.2-1.5c-6-8.6-11.6-17.4-17-26.3c-1.1-1.9-1.5-4.9-0.9-7.1c1.3-5.2,5.8-6.1,9.4-2.1
	c1.9,2.1,3.6,4.3,5.5,6.5C197.7,190.4,198.3,190,198.8,189.6z"/>
<path d="M258,144c0,0,19.4,28.4,20,30c-8,8-5.5,6.4-17.9,13.2c-4.1,2.3-8,4.9-12.5,7.8c-9.2-8.2-15-18.5-19.7-29.5
	c-0.5-1.3,0.5-4.1,1.7-5.2"/>
<path d="M270.1,153c-0.8-1.5-1.7-3-2.5-4.6c-2.4-4.9-1.4-7.9,3.4-10.4c4.8-2.6,7-1.7,10.2,3.2c3.6,5.4,7.5,10.5,11.1,15.9
	c3.3,5,2.7,7.6-2,10.6c-6.3,4-9.5,3.9-12.7-1.1c-2.8-4.4-5.1-9.1-7.7-13.7L270.1,153z"/>
<path d="M175.1,190c6.2,10.2,14.9,25,21.8,36.2c-3.4,2.3-6.5,4.4-10.2,6.9c-1.6-3.2-2.5-5.2-3.6-7c-4.9-8.4-13-21.7-17.9-30"/>
</svg>
