<?xml version="1.0" encoding="utf-8"?>
<!-- Generator: Adobe Illustrator 26.3.1, SVG Export Plug-In . SVG Version: 6.00 Build 0)  -->
<svg version="1.1" id="Layer_1" xmlns="http://www.w3.org/2000/svg" xmlns:xlink="http://www.w3.org/1999/xlink" x="0px" y="0px"
	 viewBox="0 0 400 400" style="enable-background:new 0 0 400 400;" xml:space="preserve">
<path d="M111.9,118c0-14.1,0.1-28.3-0.1-42.4c-0.1-6.7,2.9-10.7,8.7-13.9c25.1-13.5,49.9-27.5,75.1-40.8c2.8-1.5,7.9-1.5,10.7,0.1
	c25.1,13.4,50,27.3,74.9,41.1c6.4,3.5,10.2,8,10,16.5c-0.6,26.7-0.4,53.4-0.2,80c0.1,6.7-2.3,10.2-8.5,13.5
	c-18.4,9.6-36.1,20.5-54.1,30.7c-7.2,4.1-14.4,8.1-22,11.2c-3.1,1.3-7.8,1.6-10.6,0.1c-20.7-10.8-41.2-22.2-61.7-33.5
	c-1.6-0.9-3.1-2.1-4.7-3c-21.4-11.4-17.3-4.8-17.7-30.1c-0.2-9.9,0-19.7,0-29.6C111.7,118,111.8,118,111.9,118z"/>
<path d="M269.9,332.3c-8-4.8-16.1-9.4-24.5-13.2c-2.7-1.2-6.5,0-9.8,0.3c-2.6,0.2-5.6,1.6-7.6,0.7c-6.5-3-12.8-6.6-19-10.2
	c-6.2-3.6-12.1-3.5-18.1,0.2c-4.3,2.6-8.5,5.5-13.1,7.7c-4.5,2.2-9.1,6-14.2,0c-1.1-1.3-6.1-0.4-8.6,0.8
	c-8.8,4.4-17.4,9.1-25.7,14.4c-2.3,1.5-3,5.4-4.3,8.2c-1.2,2.4-2.3,4.9-3.4,7.3c-2.1-1.6-4.8-2.8-6.2-4.8
	c-4.8-7.6-9.1-15.5-13.8-23.2c-4.3-6.9-3.6-9.6,3.2-13.3c14-7.6,27.9-15.3,41.9-22.9c3.4-1.9,5.8-3.5,2.8-8
	c-1.1-1.6-0.6-5.2,0.5-7.1c5-8.7,10.6-17.1,15.9-25.7c3.5-5.6,7.9-3.1,11.8-1.2c4.1,1.9,8.2,4.1,11.6,7c10.3,8.7,18.6,1.3,27.2-3
	c0.9-0.5,1.6-1.4,2.4-2.1c8.1-6.3,12.5-5.6,17.6,3c4.1,6.9,8.5,13.6,12.1,20.7c1.4,2.8,0.3,6.9,1.3,10c0.9,2.8,2.8,6,5.2,7.4
	c12.4,7.2,25.1,13.9,37.7,20.8c9.4,5.2,9.7,6.7,4.4,16.1c-4.1,7.2-7.9,14.6-12.4,21.5c-1.3,1.9-7,3.3-7,3.3"/>
<path d="M81.6,198.2c0.1-5.2,2.3-6.8,7.1-4.2c16.1,8.8,32.4,17.3,48.3,26.5c1.8,1,3.5,5.9,2.6,7.6c-5.1,9.4-10.9,18.3-16.5,27.4
	c-2.6,4.2-5.5,4.5-10,1.8c-7.2-4.4-15-8-22.7-11.7c-6.2-3-9.4-7.2-8.5-14.5C82.4,226.3,81.5,204.4,81.6,198.2z"/>
<path d="M317.8,229.6c1.5,8.7-3,13.4-9.8,17c-7.5,3.9-14.9,8.2-22.7,11.5c-2,0.8-6.4-0.5-7.7-2.3c-4.2-6.1-7.7-12.7-11.2-19.3
	c-2.4-4.4-6.8-9.9-5.7-13.5c1-3.5,7.8-5.5,12.2-7.9c12.7-7.1,25.5-14.1,38.3-21.1c4.5-2.5,6.6-1,6.6,3.8
	C317.9,204.1,317,225.5,317.8,229.6z"/>
<path d="M88.4,316.5c1.2,0.9,4.1,2,5.6,4.1c5.3,7.6,10.2,15.5,15.2,23.4c3.2,5.1,3.5,9.7-1.6,14.2c-5.2,4.6-9.7,9.9-15,14.3
	c-6.7,5.6-14.4,3.7-18.7-3.8c-5.2-9-10.5-17.8-15.9-26.7c-6.6-10.9-3.8-18,8.5-21.1c5.1-1.3,10.3-2.5,15.5-3.6
	C83.6,316.9,85.2,316.9,88.4,316.5z"/>
<path d="M313.5,315.8c9.1,2.4,17.5,4.2,25.5,6.8c5.7,1.8,8.4,10.2,5.4,15.2c-6.6,10.9-13.2,21.8-20.2,32.4c-4.3,6.6-10.9,7.8-17,2.6
	c-5.9-4.9-11.2-10.6-16.2-16.4c-1.4-1.7-1.7-5.7-0.7-7.7c4.6-9.5,9.6-18.9,15.1-27.9C306.9,318.3,310.8,317.3,313.5,315.8z"/>
<path d="M168.1,225.8c-2.3,4.8-3.8,8.6-5.8,12c-7.6,12.5-15.4,24.9-23.1,37.4c-4.1,6.7-9,3.3-13.9,1.2c-5.1-2.2-4.8-5.8-2.4-9.8
	c9.1-15.3,18.1-30.6,27.5-45.8c1-1.7,4.8-3.3,6.3-2.7C160.8,220.1,164.3,223.2,168.1,225.8z"/>
<path d="M266,279c-0.9-0.6-3.4-1.5-4.5-3.3c-7.3-12-14.3-24.2-21.4-36.3c-0.9-1.6-2.1-3.1-2.9-4.8c-1.5-3.2-4.9-8.1-3.9-9.3
	c2.7-3.2,7.1-5.4,11.2-6.8c1.3-0.5,4.5,2.2,5.8,4.2c9.2,14.6,18.3,29.4,27.1,44.3C280.7,272.5,275,279.2,266,279z"/>
<path d="M139.5,354.5c-3.1-4.4-6.7-8.3-8.5-13c-0.6-1.4,3.4-5.5,6.1-7.1c5.7-3.4,11.9-6,17.8-9c8.4-4.4,8.9,3.7,11.8,7.6
	c3.2,4.3,0,7-3.4,8.9C155.9,346,148.4,349.8,139.5,354.5z"/>
<path d="M260.7,354.2c-9.8-5.2-18.1-8.9-25.4-13.9c-1.7-1.2-1.4-7.8,0.2-10.4c1.6-2.5,6.8-5.1,9.4-4.3c7.5,2.3,14.7,5.9,21.6,9.8
	c1.6,0.9,2.9,5.4,2,7.4C267,346.7,263.8,349.9,260.7,354.2z"/>
</svg>
