<?xml version="1.0" encoding="utf-8"?>
<!-- Generator: Adobe Illustrator 26.3.1, SVG Export Plug-In . SVG Version: 6.00 Build 0)  -->
<svg version="1.1" id="Layer_1" xmlns="http://www.w3.org/2000/svg" xmlns:xlink="http://www.w3.org/1999/xlink" x="0px" y="0px"
	 viewBox="0 0 400 400" style="enable-background:new 0 0 400 400;" xml:space="preserve">
<path d="M336,199c-4.4-2.1-10.8-3.4-15.2-5.4c-2.9-1.3-5.9-3-8.9-3.3c-4.1-0.4-8.3,0.4-12.5,0.6c1.9,3.2,3.7,6.5,5.8,9.5
	c9,13,16.7,26.2,17.3,42.9c0.2,5.6,4.3,11.2,6.9,16.6c1,2.1,2.6,3.9,4.8,7c-8,0.4-12.9-3-16.2-7.6c-3.7-5.3-5.9-11.7-9.2-17.3
	c-1.5-2.7-4-4.8-6.1-7.1c-1.4,2.8-3.9,5.5-3.8,8.3c0,4.2,1.2,8.6,2.9,12.5c6,13.8,11,27.7,9.7,43.1c-1.4,16.9-13.3,27.3-26.4,33.4
	c-0.5,0.2-1.3-0.2-2.4-0.4c1.3-4.1,3-7.9,3.6-11.8c1.2-7.8-3.4-12.2-11.2-11.1c-17.4,2.4-29.5,12.1-37.2,27.6
	c-4,8-8.3,15.8-13.5,23.2c0.8-16.2-1.3-32.8,9.7-46.8c4.4-5.6,8-11.7,12.3-17.4c11-14.8,9.8-31.5,6.7-47.9c-1-5.3-5.5-10.5-9.7-14.4
	c-6-5.6-4-11.1-2.6-17.3c19.4,5.3,34.9,32.6,34.4,59.9c5.3-5.4,5.5-5.4,9.4-20.7c3.9-15,5.1-29.9-2.4-44.4
	c-6.5-12.7-16-22.7-28.4-28.9c-11.3-5.7-15.9-12.8-14.7-25.8c1.3-14.9,0.5-15.1,15.5-11.3c29.7,7.5,47.7,19.4,69.3,40.4"/>
<path d="M64,199c1.4-2,0-3,5.3-8.5c17.5-17.9,37.5-32.1,61-41.1c7.1-2.7,14.6-4.4,22-6c5-1.1,6.8,0.9,7.5,6.7
	c2,16.4-4,26.2-18.7,34.3c-18.5,10.2-30.8,26.9-29.6,49.1c0.7,13.4,5.8,26.6,9,39.9c0.3,1.2,1.7,2.1,4.2,4.9
	c0.5-27.5,8.2-49.4,33.5-62.5c2.2,7.4,2.4,12.9-2.9,17.3c-15,12.4-14.6,42.3-4.9,56.4c8,11.7,15,24.1,22,36.4
	c1.6,2.8,2.4,6.4,2.7,9.7c0.7,8.2,1,16.4,1.4,24.5c-0.6,0.3-1.3,0.6-1.9,0.9c-3.1-5.6-6.5-11-9.3-16.7
	c-7.8-15.8-17.3-29.7-35.8-34.4c-5.3-1.3-11.7-3.8-14.7,1.9c-1.9,3.8,0,9.7,0.7,14.6c0.3,1.9,1.9,3.7,3.5,6.6
	c-2.8-0.2-4.6,0.1-5.8-0.6c-14.8-8.3-26.1-18.9-25.3-38c0.6-14.3,4.5-27.4,10.7-40.2c2-4.1,2.2-9.4,1.8-14c-0.2-2-3.8-3.8-5.8-5.7
	c-1.4,2-3.5,3.9-4.2,6.1c-3.5,12-8.9,22.2-23,25c9.3-10.8,9.4-24.4,13.1-36.9c3.4-11.4,11.3-21.4,17.1-32c1-1.8,1.8-3.7,2.6-5.5
	c-2.2-0.8-4.6-2.5-6.6-2.2c-5.2,0.9-10.4,2.6-15.5,4.3"/>
<path d="M180.4,220.7c0-20.1,0.2-40.3-0.1-60.4c-0.1-6.5,2.1-8.9,8.4-8.6c6.4,0.3,12.8,0.3,19.1,0c6.2-0.3,8.7,1.9,8.6,8.5
	c-0.3,37.1-0.3,74.1-0.4,111.2c0,18.5,4.1,17.7-18.1,17.8c-21.5,0-17.6,0.4-17.5-17.7c0.1-16.9,0-33.9,0-50.8
	C180.5,220.7,180.4,220.7,180.4,220.7z"/>
<path d="M199.5,92.1c-9.6,0-19.1,0.1-28.7,0c-7.4-0.1-8.6-2-5-8.4c6.8-11.9,13.7-23.8,20.9-35.4c6.7-10.9,18-11.3,24.7-0.6
	c7.3,11.6,13.9,23.5,20.6,35.5c4.1,7.5,3.2,8.8-5.3,9C217.6,92.3,208.5,92.2,199.5,92.1C199.5,92.1,199.5,92.1,199.5,92.1z"/>
<path d="M198.5,102c9.3,0,18.6-0.2,27.9,0.1c7.4,0.2,8.2,2,4.7,8.4c-2.7,4.9-6,9.6-8.2,14.8c-1.8,4.3-2.7,9.2-3,13.9
	c-0.2,3.8-1.2,5.4-5,5.4c-9.8,0-19.6,0.3-29.4,0c-2.1-0.1-5.9-2.6-5.8-3.7c1-12.3-7.5-20.8-12.2-30.8c-3.3-7.1-3.2-8,4.4-8.1
	C180.9,101.9,189.7,102,198.5,102C198.5,102,198.5,102,198.5,102z"/>
<path d="M222.1,201.1c7.3,1.4,9.9,5.9,10.3,11.5c1.5,22.5,2.7,45,4,67.5c0.3,5,0.3,9.5-6.8,9.3c-6.1-0.1-7.9-3.1-7.9-8.8
	c0.1-24-0.1-48-0.1-72.1C221.6,206.2,221.9,203.9,222.1,201.1z"/>
<path d="M174.7,206.3c0.2,2.4,0.6,4.7,0.6,7.1c-0.2,22.8-0.2,45.6-0.8,68.4c-0.1,2.5-2.9,6.6-5,7.1c-4.7,1-5.1-3.3-5-6.9
	c0.9-22.8,1.7-45.6,2.9-68.3c0.2-2.9,2.8-5.7,4.3-8.5C172.7,205.5,173.7,205.9,174.7,206.3z"/>
</svg>
