<?xml version="1.0" encoding="utf-8"?>
<!-- Generator: Adobe Illustrator 26.3.1, SVG Export Plug-In . SVG Version: 6.00 Build 0)  -->
<svg version="1.1" id="Layer_1" xmlns="http://www.w3.org/2000/svg" xmlns:xlink="http://www.w3.org/1999/xlink" x="0px" y="0px"
	 viewBox="0 0 400 400" style="enable-background:new 0 0 400 400;" xml:space="preserve">
<path d="M205.4,208c0,6.1,0.1,12.2,0,18.3c-0.1,4.4-0.9,5.2-5.5,5.6c-2.6,0.2-5.3,0.2-7.9,0.1c-5-0.3-5.9-1.3-6-6.4
	c-0.1-5.5-0.3-5.7-5.1-6.1c-5.1-0.5-6,0.3-6.4,5.7c-0.2,2.3,0.8,5.7-2.1,6.2c-3.7,0.5-7.7,0-11.4-1c-1.1-0.3-1.5-3.7-1.8-5.8
	c-0.6-4.2-1.4-5.1-5.1-5.1c-4.2,0.1-5.4,1.2-5.8,5.2c-0.6,6.6-1.3,7.3-7.9,7.3c-1.1,0-2.2-0.1-3.3-0.2c-6.6-0.5-7-1.1-7-7.4
	c0-10.9,0.1-21.8,0-32.7c-0.1-8.6-5.8-11.9-13.6-8.1c-0.4,0.2-0.8,0.4-1.2,0.6c-6.7,3.4-6.7,3.4-11.4-2.4c-3.3-4.1-6.9-7.8-10-12.1
	c-3.2-4.6-2.9-5.8,0.8-9.6c3.4-3.4,6.7-6.9,10.1-10.2c3.3-3.2,3.8-7.2,3.9-11.4c0.1-9.6,0.4-19.2,0-28.7
	c-0.5-12.3,5.2-21.7,14.5-28.5c20.2-14.7,42.5-18.1,66.5-10.7c11.5,3.5,21,9.6,28.5,18.8c5.1,6.2,8.3,13.1,8.1,21.5
	c-0.2,9.8,0.1,19.6,0.1,29.4c0,5,1.4,9.3,5.6,12.6c2.9,2.3,5.3,5.2,7.9,7.8c3.5,3.6,3.6,5.3,0.7,9c-3.5,4.5-7,8.9-10.6,13.3
	c-3.3,4-5,4.3-9.5,1.9c-1-0.5-1.9-1.1-2.9-1.6c-7.4-3.6-12.3-0.6-12.5,7.7c-0.1,2.8,0,5.7,0,8.5C205.3,202.3,205.4,205.2,205.4,208
	C205.4,208,205.4,208,205.4,208z M200.5,155.9c6.1-0.8,10.7-3.8,15.3-6.8c3.7-2.4,4.8-5.7,3.6-9.6c-1.6-5.4-4.6-9.8-10.1-12.1
	c-7.7-3.3-22.5,0.8-27.3,7.5c-3.1,4.4-2.6,12.7,1.5,14.7C189,152.1,194.8,153.8,200.5,155.9z M135.8,155.1c2.7-0.9,6.5-2.5,10.5-3.4
	c9.6-2.2,10.3-14,3.3-19.5c-4.1-3.2-8.8-4.5-13.7-5.8c-9.8-2.7-21.8,5.9-21.7,15.9c0,1.4,0.8,2.9,1.8,4
	C120.7,152,127,154.6,135.8,155.1z M166.7,173c0.2-0.3,0.4-0.6,0.5-0.8c1.1-0.1,2.2-0.2,3.2-0.5c6.6-1.8,8.5-6.3,5.1-12.2
	c-1.2-2.1-2.1-4.3-3.3-6.3c-2.3-3.9-6.4-4.5-8.9-0.8c-2.3,3.4-4.2,7.1-5.7,10.8c-0.6,1.4,0,4.2,1.1,5.1
	C161,170.3,164,171.5,166.7,173z"/>
<path d="M239.3,265.4c-1.8,8.3-1.8,8.3-8,8.1c-0.7,1.9-1.4,3.8-2.2,6c-4.2-1.2-8.1-2.3-12.1-3.5c-0.6,1.2-1.2,1.9-1.4,2.7
	c-0.8,3.4-2.7,3.9-5.9,3c-4.8-1.3-6-0.4-7,4.6c-1,5.2-1,5.2-6.3,4.1c-0.4-0.1-0.9-0.1-1.3-0.3c-6.4-2.7-12.3-3-18.3,1.9
	c-2.5,2-6.5,2.2-9.9,3.1c-2.3,0.6-3.7-0.6-4.7-2.6c-3.9-7.8-7.9-15.5-11.7-23.4c-1.9-4,0.8-11.4,5.1-13.4c6.5-3,13.3-5.5,20-8.1
	c6.5-2.5,13.1-4.7,19.7-7.2c21-8,41.9-16.1,63-23.9c11.2-4.2,22.6-8.1,33.8-12.1c5.8-2,11.4-4.3,17.3-6c2.4-0.7,5.3-0.8,7.6-0.1
	c3.6,1.1,6.3,0.2,9.1-1.8c7.1-5.1,14.2-10.2,21.4-15.1c2.8-1.9,5.9-3.5,10.3-6.1c-0.5,4.6,0,1.6-1.2,10.7
	c-2.1,16.3-12.9,30-27.3,39.6c-3.2,2.2-6.3,4.9-8.8,7.8c-5.6,6.6-13.3,9.4-21.1,12.5c-10.6,4.1-20.9,8.9-31.4,13.3
	c-5.6,2.4-11.3,4.5-16.9,6.9C247.2,268,243.2,269.7,239.3,265.4z"/>
<path d="M131.6,271.5c-0.6-8.8-1.2-17.2-1.7-25.6c-0.1-1.5-0.3-3.2,0.2-4.5c0.7-1.6,2-3.8,3.3-4.1c1.3-0.2,3.4,1.5,4.3,2.9
	c1.6,2.8,2.6,6,3.7,9c4,10.8,7.9,21.6,12.1,32.3c4,10.1,8.2,20.1,12.3,30.1c0.5,1.2,1.3,2.4,1.5,3.6c0.2,1.2,0.2,3.1-0.4,3.5
	c-1.1,0.7-3,1-4.1,0.5c-1.7-0.8-3.2-2.2-4.5-3.6c-3.8-3.9-7.6-7.8-11.1-12c-2.3-2.8-4.6-3.5-8-2.1c-15.9,6.6-32.7,10.9-48.3,18.3
	c-5.5,2.6-11.6,3.9-17.5,5.5c-2.2,0.6-3.8,1.2-5.2,3.3c-4.9,6.9-13.4,6.6-18.4-0.6c-1.1-1.6-1.7-3.5-2.5-5.3
	c-1.5-3.3-2.9-6.8-4.7-10c-3.8-6.7-1.3-14.5,6-17.1c1.6-0.6,3.9-1.2,5.1-0.4c6.5,4.2,11.4-0.8,16.7-2.6c13.9-4.6,27.6-9.7,41.3-14.6
	c4.1-1.5,8-3.3,12.2-4.7C126.6,272.4,129.3,272,131.6,271.5z"/>
<path d="M316.4,249.5c6.3,11.3,13.6,22.1,16,35.2c2.6,13.9-9.7,22.5-20.1,20.3c-8.8-1.9-14.9-9.1-13.6-17.9c1-6.4,3.1-12.6,5.5-18.7
	c2.2-5.6,5.4-10.9,8.2-16.3c0.6-1.1,1.3-2.2,2-3.3C315.1,249,315.7,249.2,316.4,249.5z"/>
</svg>
