<?xml version="1.0" encoding="utf-8"?>
<!-- Generator: Adobe Illustrator 26.3.1, SVG Export Plug-In . SVG Version: 6.00 Build 0)  -->
<svg version="1.1" id="Layer_1" xmlns="http://www.w3.org/2000/svg" xmlns:xlink="http://www.w3.org/1999/xlink" x="0px" y="0px"
	 viewBox="0 0 400 400" style="enable-background:new 0 0 400 400;" xml:space="preserve">
<path d="M234.3,280.8c-5.4,0-10.9,0.6-16.2-0.2c-5.6-0.9-11.5-2.4-16.5-5c-5.1-2.7-9.7-3.8-15.4-2.2c-17.5,4.9-32.8,13.7-47,24.7
	c-15.3,11.9-30.9,23.4-46.3,35.2c-3.1,2.4-5.7,3.8-7.8-0.6c-6.6-14.2-13.1-28.5-19.7-42.8c-2.4-5.3-2.4-8.7,4.2-12.1
	c20.7-10.6,40.9-22.2,61.2-33.6c12.2-6.9,24.2-14.2,36.3-21.5c5.5-3.3,9.1-2.2,11.5,4.2c1.3,3.6,3.4,4.8,7,3.7
	c14.9-4.4,29.8-8.4,44.6-13.1c5.3-1.7,10.1-5,15.2-7.3c6.9-3.1,14.6-0.3,16.2,7.1c2.7,12.1,10.6,20.7,17.2,30.4
	c4.6,6.8,2.6,14.1-5.5,15.5c-6.1,1.1-9.2,3.3-9,10c0.2,5.5-4.2,7-8.7,7.1c-7.1,0.2-14.1,0.1-21.2,0.1
	C234.3,280.5,234.3,280.7,234.3,280.8z"/>
<path d="M375.8,152.1c-4.1,6.3-7.3,13.6-12.5,18.7c-9.7,9.5-20.3,18.5-34.8,19.9c-2.9,0.3-6.2-0.2-8.9-1.3
	c-7.2-2.9-11.5-2.2-17.5,3.2c-8,7.3-17.3,11.8-28.1,13.4c-11.3,1.7-20.8-2.6-29.6-8.9c-1.7-1.2-2.6-3.5-4.8-6.5
	c3.7,0.2,5.9-0.2,7.7,0.4c13.2,4.3,23.6-1.1,32.4-9.8c3.2-3.1,4.9-8.5,5.8-13.2c2-11.3,3.1-22.8,4.5-34.2c0.1-0.8-0.1-1.7-0.2-2.6
	c-0.6-0.4-1.3-0.7-1.9-1.1c-3.2,4.9-6.7,9.6-9.6,14.6c-4.4,7.7-6.4,16.4-14,22.4c-11.7,9.4-27.3,11.2-37.6,3
	c-13.3-10.7-17-26.2-8.3-40.2c4.8-7.6,11.3-14.2,17.1-21.1c0.8-0.9,2.3-1.1,5.3-2.4c-4.4,10.3-5.3,19.5-1.2,28.4
	c1,2.3,3.7,3.8,6.6,6.6c0.6-3.2,1.2-5,1.1-6.7c-1-16.7,7.8-27.5,21.4-35.3c5.1-2.9,10.7-4.8,15.9-7.7c9-5,17.8-10.4,26.7-15.5
	c1.7-1,3.6-1.7,5.4-2.6c0.8,1.8,2.3,3.7,2.3,5.5c0.1,5.9-0.4,11.7-0.6,17.6c0,1.5,0.3,3,0.4,4.8c13.4-6.5,20.1-21.3,16.5-34.6
	c-1.2-4.3-1.7-8.9-2.7-14.1c15,3.4,22.4,12.8,25.2,25.2c3.3,14.7,1.7,29.6-9.3,40.9c-8.3,8.5-18.4,15.3-27.7,22.9
	c-2.3,1.9-4.9,3.8-6.5,6.2c-6.3,9.3-3.5,15.1,7.8,15.7c15.1,0.9,29.5-1.7,42.8-9.3c2.8-1.6,5.7-3,8.6-4.5
	C374.2,150.8,375,151.5,375.8,152.1z"/>
<path d="M180.3,220c-1.4-1.5-3.3-2.6-3.8-4.2c-1.4-4.9-3.8-5-7.9-3c-23.3,11.7-46.7,23.2-70,34.9c-9.9,4.9-19.7,10-29.4,15.3
	c-1.5,0.8-3.1,3.1-3.1,4.7c0.3,6.5-4.9,8.2-9.1,10.4c-1.1,0.6-5-1.6-5.6-3.2c-1.7-4.6-2.4-9.5-3.3-14.4c-0.4-2.3-0.4-4.7-0.8-7
	c-0.7-4.1-3.5-9.8-1.9-11.8c3.7-4.4,9.6-7.1,14.7-10.3c8.4-5.1,16.5-10.7,25.4-14.8c8.1-3.8,17-5.8,25.6-8.7c3.1-1,6.4-1.6,9.2-3.1
	c9.2-4.7,18.1-10,27.4-14.5c2.9-1.4,6.9-2.3,10-1.5c7.2,1.7,13.3-0.2,19.8-3c7.7-3.4,15.8-6,23.7-8.9c3.8-1.4,5.8,0,6.3,4
	c1.1,8.1,2.5,16.3,3.6,24.4c0.2,1.3-0.7,3.7-1.7,4.1C200.1,212.9,190.6,216.2,180.3,220z M130.7,209.2c-3.3,1.3-6,2.1-8.5,3.4
	c-5.8,3-11.4,6.5-17.2,9.5c-11.7,5.9-23.4,11.8-35.2,17.4c-3.2,1.6-5.3,3.3-3.4,7c1.9,3.6,4.8,3.1,7.9,1.6
	c5.9-2.9,11.8-5.9,17.7-8.8c13.3-6.6,26.7-13,39.8-19.9c2-1,3.5-4,3.9-6.4C135.8,212.1,132.5,210.5,130.7,209.2z"/>
<path d="M131,179.1c-4.3,5.8-8.3,11.2-12.3,16.5c-0.5,0.7-1.4,1.3-2.3,1.6c-19.1,7.9-36.5,19.1-54.2,29.6c-7.6,4.5-15.8,8.1-23.8,12
	c-5.2,2.5-7-1.6-9.1-5.1c-2.2-3.5-1.8-5.8,2.1-8c22.1-12.4,44.1-25,66.1-37.6c2.4-1.4,4.6-3.2,6.9-4.8c1.2-0.8,2.2-2.1,3.4-2.4
	c7-1.2,14.1-2.2,21.2-3.2C129.5,177.8,130.1,178.5,131,179.1z"/>
<path d="M125.3,320.4c7.6-5.1,13.1-4.2,19.4-0.1c10.4,6.7,21.6,12.3,32.4,18.4c6.4,3.6,12.4,3.2,18.7-0.3
	c13-7.1,26.3-13.7,39.3-20.7c4-2.1,6.7-1.5,8.7,2.3c2.1,4,0.2,6.8-3.4,8.6c-17.1,8.7-34.2,17.5-51.5,26c-1.9,0.9-5.1,0.6-7.1-0.4
	c-10.2-5.3-20.2-10.9-30.3-16.5c-6.8-3.7-13.6-7.4-20.3-11.4C129.1,325,127.5,322.7,125.3,320.4z"/>
<path d="M310.4,260.2c0,8-0.2,16,0.1,24c0.1,5.4-2.4,9-6.9,11.4c-12.9,6.7-25.8,13.5-39,19.7c-2.4,1.1-6.2,0.4-9-0.6
	c-1.4-0.5-2.8-3.2-2.9-4.9c0-1.1,2.3-2.5,3.8-3.3c12.4-6.6,25.1-12.9,37.3-19.9c2.2-1.3,3.7-5.3,3.8-8.2c0.8-14.3,1-28.7,1.4-43.1
	c0.1-3.9,0.6-7.1,5.6-7.2c5.2-0.1,6.2,3,6.2,7.4c-0.1,8.2,0,16.5,0,24.7C310.6,260.2,310.5,260.2,310.4,260.2z"/>
<path d="M188.9,90.7c3.1,1.2,6.4,2,9.2,3.5c7.3,3.8,14.4,7.9,21.5,12.1c4.1,2.4,5.6,5.8,3,10.1c-2.6,4.3-5.6,1.6-8.4,0.1
	c-6.2-3.4-12.4-6.6-18.5-10.1c-5.1-3-9.7-3-15.2,0c-13.5,7.4-27.4,14.1-41.3,20.8c-1.6,0.8-5.5,0.3-5.9-0.5c-0.8-2-1-5.7,0.3-6.8
	c4.2-3.6,8.9-6.7,13.8-9.3c11.4-6,23-11.7,34.6-17.4C184.2,92.1,186.5,91.6,188.9,90.7z"/>
<path d="M65.5,172.7c0-4,0.2-8-0.1-12c-0.4-5.5,2.7-9.1,7-11.3c12.9-6.7,26-13,39.1-19.5c1.3-0.6,2.8-1.7,3.9-1.4
	c2.6,0.8,5.1,2.3,7.6,3.6c-1.2,2.3-1.7,5.6-3.6,6.7c-12.3,7-24.7,13.7-37.4,19.9c-3.8,1.9-5.5,3.9-5.4,7.9c0,5.4,0.1,10.9-0.4,16.2
	c-0.2,2.3-1.4,5.1-3.1,6.5c-4.5,3.5-7.4,1.9-7.6-3.7c-0.1-4.2,0-8.5,0-12.7C65.4,172.7,65.4,172.7,65.5,172.7z"/>
<path d="M310.9,207.3c0,0.3,0.5,2.7-0.4,3.9c-1.4,1.7-3.8,3.4-5.8,3.5c-1.7,0.1-4.4-1.9-4.9-3.5c-0.9-2.5-0.4-5.6-0.5-8.4
	c-0.1-4.4,1.9-6.5,6.4-6.5c4.7,0,5.3,2.9,5.3,6.6C310.9,203.8,310.9,204.7,310.9,207.3z"/>
<path d="M221.9,180.2c-3.1,2.9-5.1,4.8-7.1,6.7c-1.6-1.9-4.8-4.1-4.5-5.6c0.5-2.3,3.1-4.7,5.3-5.9
	C216.4,174.9,219.1,177.9,221.9,180.2z"/>
<path d="M217.4,188.2c1.6,2.3,4.6,4.7,4.4,6.9c-0.1,2-3.5,3.9-5.5,5.8c-1.3-1.6-3.7-3.1-3.7-4.7c0-2.6,1.5-5.2,2.3-7.8
	C215.8,188.3,216.6,188.2,217.4,188.2z"/>
</svg>
