<?xml version="1.0" encoding="utf-8"?>
<!-- Generator: Adobe Illustrator 26.3.1, SVG Export Plug-In . SVG Version: 6.00 Build 0)  -->
<svg version="1.1" id="Layer_1" xmlns="http://www.w3.org/2000/svg" xmlns:xlink="http://www.w3.org/1999/xlink" x="0px" y="0px"
	 viewBox="0 0 400 400" style="enable-background:new 0 0 400 400;" xml:space="preserve">
<path d="M51,35.2c0,29.8,0,154.4,0,154.4c6.5,22,17.2,48.6,35.2,75.9c14.9,22.5,36.1,41.2,78.6,78.6c14.9,13.1,24,20.4,36.6,20.3
	c13.8-0.1,23.2-8.9,44.7-31.2c41.4-42.9,62.4-64.9,75.9-86.7c7.9-12.8,17.9-31,27.1-54.2c0-52.4,0-104.8,0-157.1
	c-18.1,0-36.1,0-54.2,0c-4.5,5.4-9,10.8-13.5,16.3c-55.1,0-110.2,0-165.3,0c-4.5-5.4-9-10.8-13.5-16.3C85.8,35.7,67.7,34.8,51,35.2z
	"/>
</svg>
