<?xml version="1.0" encoding="utf-8"?>
<!-- Generator: Adobe Illustrator 26.3.1, SVG Export Plug-In . SVG Version: 6.00 Build 0)  -->
<svg version="1.1" id="Layer_1" xmlns="http://www.w3.org/2000/svg" xmlns:xlink="http://www.w3.org/1999/xlink" x="0px" y="0px"
	 viewBox="0 0 400 400" style="enable-background:new 0 0 400 400;" xml:space="preserve">
<path d="M327.9,193.3c-85.9,0-169.1,0-255.8,0c7.8-9.3,13.4-16.4,19.4-23.1c32.8-36.9,65.9-73.6,98.5-110.7
	c7.6-8.6,12.8-9.6,20.8-0.4c36.4,41.6,73.4,82.7,110.1,124.1C323,185.6,324.6,188.5,327.9,193.3z"/>
<path d="M200.6,275.9c-38.5,0-76.9,0.1-115.4,0c-16.2-0.1-19.7-4.6-17.7-19.9c1.2-9.1,6.3-11.8,14.8-11.8c28.3,0.2,56.6,0,85,0
	c49.4,0,98.9,0.1,148.3,0.1c9.7,0,17.9,1.4,18.4,13.8c0.5,13.2-3.1,17.7-16.6,17.8C278.3,276,239.5,275.9,200.6,275.9z"/>
<path d="M200.3,351.6c-38.1,0-76.1,0.1-114.2,0c-16.3,0-19-2.4-18.9-15c0.1-12.7,3.6-16,18.5-16c76.5-0.1,153.1-0.1,229.6,0
	c15.1,0,18.9,4.2,18.7,17.4c-0.2,11.7-7.5,13.7-17,13.7C278.1,351.5,239.2,351.6,200.3,351.6z"/>
</svg>
