<?xml version="1.0" encoding="utf-8"?>
<!-- Generator: Adobe Illustrator 26.3.1, SVG Export Plug-In . SVG Version: 6.00 Build 0)  -->
<svg version="1.1" id="Layer_1" xmlns="http://www.w3.org/2000/svg" xmlns:xlink="http://www.w3.org/1999/xlink" x="0px" y="0px"
	 viewBox="0 0 400 400" style="enable-background:new 0 0 400 400;" xml:space="preserve">
<path d="M95,41.8c1.5,1.9,3.3,3.7,4.4,5.8c5.3,10.4,10.5,20.8,15.7,31.3c4.8,9.7,4.2,10.9,14.9,4.9C176.4,57.7,223.1,58,269.6,84
	c1.5,0.8,3.1,1.7,4.5,2.7c4.3,3.1,7.1,1.6,9.1-2.8c4.4-9.4,9-18.7,13.5-28.1c1.3-2.7,2.8-5.4,4-8.1c2.3-5.1,5.1-6.7,9.5-1.9
	c2.6,2.9,5.5,5.5,8.3,8.3c11.2,11.4,22.5,22.8,33.6,34.3c7.4,7.7,7.3,7.9-2.4,13.3c-9.4,5.3-19,10.3-28.4,15.6
	c-9.6,5.4-9.6,5.5-4.8,14.6c24.2,45.1,24.1,90.1-0.3,135.1c-5.3,9.7-5.3,9.8,5,15.7c11.2,6.5,22.4,13,33.7,19.5
	c4.1,2.3,4.2,4.8,0.9,8c-15.6,15-31.2,30-46.7,45.1c-3.6,3.5-5.8,2.3-7.8-1.7c-5.8-11.6-11.7-23.2-17.7-34.7
	c-4.9-9.4-5-9.6-14.2-4.3c-22.2,12.8-45.9,19.4-71.8,19c-23.1-0.3-44.4-6.2-64.5-17.2c-9.2-5-9.4-5-14.8,4
	c-6.2,10.4-12.3,20.9-18.2,31.4c-2.9,5.3-5.6,7-10.6,2c-15-15-30.2-29.7-45.5-44.4c-4.7-4.5-3.1-7,1.9-9.6
	c10.8-5.5,21.4-11.3,32.2-16.9c10.6-5.6,10.6-5.5,4.3-16.7c-17.4-31.3-22-64.6-13.6-99.1c3.1-12.8,9.6-24.9,15.1-37.1
	c3.7-8.3,4.1-8.7-3.9-12.9c-11.5-6-23.1-11.8-34.7-17.6c-3.5-1.8-6-3.8-2.2-7.7c16-15.9,31.9-31.7,47.9-47.5
	C91.7,43.5,93,43,95,41.8z M194.8,293.4c0.1,0,0.1,0,0.2,0c0-2.2-0.3-4.4,0.1-6.5c0.9-5.4,2.4-9.5,5-15.6c1.8,5,4.6,9.9,5.1,15.1
	c1,9.4,0.6,19,0.8,28.5c0.1,5.5,2.8,8.3,8.2,7.1c17.2-3.9,35.2-5,49.7-17c7.7-6.3,8.1-6.7,3.3-15.9c-5-9.5-10-19-14.6-28.7
	c-1.2-2.4-0.8-5.6-1.2-8.4c2.8,0.1,5.9-0.7,8.2,0.4c10.2,4.6,20.1,9.8,30.2,14.6c9.9,4.7,10.4,4.5,16.4-4.8
	c7.9-12.2,12.2-25.7,14.3-39.9c2.1-13.9,0.8-15.4-13.4-15.9c-7.4-0.3-14.7,0-22.1-0.3c-5.3-0.2-13.4-6.1-13.4-6.1s8-4.5,12.7-4.7
	c10.4-0.5,20.8-0.4,31.2-0.5c5.5-0.1,7.4-2.1,6.4-8.1c-2.9-17.2-6.5-33.9-17.4-48.2c-5.9-7.7-5.7-7.7-14.1-3.7
	c-10.9,5.3-21.8,10.4-32.9,15.3c-1.7,0.7-4.7,0.7-5.8-0.4c-1-1-0.5-3.9-0.1-5.8c0.5-2.5,1.4-5,2.6-7.3c4.6-9.2,9.1-18.6,14.3-27.5
	c2.5-4.3,2.1-6.9-1.7-9.8c-16-12.3-34.2-17.7-54.1-18.6c-5.3-0.3-6.5,3.1-6.5,7.5c-0.1,8.7-0.2,17.3-0.5,26c-0.1,3.4,0,7-1,10.3
	c-0.6,2.1-3.1,3.6-4.8,5.4c-1.6-1.8-3.8-3.3-4.5-5.4c-0.9-2.3-0.4-5.1-0.5-7.7c-0.5-9.5-1.4-19-1.3-28.5c0.1-7.4-3.1-7.8-9.5-7.8
	c-15.8-0.1-29.2,7.7-43.3,12.7c-10.4,3.7-11.4,10.6-6.5,20.8c4.7,9.7,9.7,19.3,14.3,29c0.9,2,0.5,4.7,0.7,7c-2.4,0-5.2,0.8-7.2-0.1
	c-10.6-4.8-21-10-31.4-15.2c-9-4.5-10.1-4.4-15.9,3.8c-9.4,13.4-14.1,28.6-15.5,44.8c-0.9,10.8-0.4,11.1,10.1,11.4
	c10.8,0.3,21.7,0,32.5,0.7c2.6,0.2,5.1,3.3,7.6,5.1c-2.5,1.9-4.9,4.1-7.7,5.5c-1.8,0.8-4.3,0.3-6.4,0.4c-8.7,0.1-17.3-0.1-26,0.3
	c-9.2,0.4-11.3,2.6-10.1,10.9c2.2,14.9,4.6,29.7,13.1,42.8c6.6,10.2,8.9,11.2,19.9,6c9.7-4.6,19.4-9.4,29.3-13.8
	c2.2-1,4.8-0.8,7.3-1.2c-0.1,2.8,0.8,6.1-0.3,8.4c-4.8,10.1-10.2,20-15.2,30c-4.2,8.4-3.3,10.4,4.1,16.3
	c10.6,8.4,23.4,11.9,36.1,13.3c23.9,2.6,18.5,7.3,21.5-16.9C195.1,299.5,194.8,296.4,194.8,293.4z"/>
<path d="M169.1,199.8c0.2-18.5,13.7-31.4,32.4-31c17.7,0.4,30.8,13.8,30.8,31.5c0,18.2-13.7,31.7-32,31.7
	C181.7,231.9,168.8,218.6,169.1,199.8z"/>
</svg>
