<?xml version="1.0" encoding="utf-8"?>
<!-- Generator: Adobe Illustrator 26.3.1, SVG Export Plug-In . SVG Version: 6.00 Build 0)  -->
<svg version="1.1" id="Layer_1" xmlns="http://www.w3.org/2000/svg" xmlns:xlink="http://www.w3.org/1999/xlink" x="0px" y="0px"
	 viewBox="0 0 400 400" style="enable-background:new 0 0 400 400;" xml:space="preserve">
<path d="M178.6,139.1c-10.3,2.7-20.6,5.3-30.7,8.9c-5.6,2-11.7,2.9-17.7,3.3c-2.5,0.2-7.2-0.4-7.7-3.1c-0.5-2.6,3.4-4.3,5.6-5.5
	c6.6-3.4,13.6-6.3,20.4-9.5c1.6-0.7,3-1.8,4.3-3.4c-4.1-0.9-7.4,1-10.8,2.6c-4.2,2-8.5,3.8-12.9,5.2c-1.4,0.4-4.3,0.4-5.1-1.2
	c-0.9-1.7,1.1-3.9,2.4-5.2c1.4-1.4,3.5-2.2,5.4-3.1c23.8-11.2,49.3-14.1,75.1-15.1c26.7-1,53.4-2.1,80.1-2.6c12-0.2,22.4-4,32-10.8
	c6.1-4.3,6.7-4.3,11.5,1.6c7.8,9.6,15.1,19.6,22.5,29.5c1.8,2.5,3.3,4.9-0.6,7.6c-11,7.5-22.1,14.7-32.4,23.1
	c-14.5,11.9-31.2,18.5-48.9,23.4c-8.1,2.2-16,5-24,7.5c-2.5,0.8-4.8,1.7-7.3,2.5c-3.2,0.9-6,0.6-7.9-2.6c-1.8-2.9-2-6.1,0.5-8.4
	c3.3-3.2,6.8-6.9,11-8.3c9.6-3.1,14.6-10.5,19.9-17.9c2.4-3.4,1.6-6.5-2-8.1c-4.7-2.1-9.6-3.5-14.5-5.1c-14.8-4.8-28.8-4.1-42.1,5.2
	c-4.1,2.8-9.4,4.4-14.4,5.3c-7.2,1.3-12.5,5.1-17.3,10c-4,4.2-9,5-14.2,4.1c-2-0.3-4.8-1.9-5.3-3.5c-0.5-1.6,1-4.5,2.6-5.8
	c7.5-6.6,15.2-12.8,22.8-19.2C178.8,140.1,178.7,139.6,178.6,139.1z"/>
<path d="M343.5,182c4.2,11.6,3.4,21.3,2.9,32.7C346,224,344,232,343,237c-4.6,22.8-9.1,29.5-22.3,48.1
	c-10.8,15.2-24.7,26.7-39.5,37.4c-5.1,3.7-10.8,6.6-16.7,8.9c-10.4,4.1-20,10.3-31.5,11.5c-7.2,0.8-8-0.2-5.4-7.1
	c6.1-16.6,12.2-33.2,18.1-49.9c1.3-3.7,3.4-5.7,7.2-6.7c14.3-3.4,27.7-9.5,39.5-17.7c14.3-9.9,27.4-21.7,35.7-37.9
	c6.2-12.1,12-24.2,13.6-38C341.8,184.9,342.5,184.1,343.5,182z"/>
<path d="M201,59c-4.6,1.5-12.5,5.1-17.1,6.5c-27.1,8.4-47.3,26.2-63,48.7c-9.2,13.3-13.4,29.3-15.1,45.5c-0.6,5.4-2.4,8.2-7.7,10
	c-16.3,5.6-32.5,11.9-48.6,18c-6.4,2.4-8.3,1.3-7-5.1c4.5-22.1,11.8-42.9,26-61.2c6.8-8.8,13.8-17.1,22.2-24.1
	c12.5-10.5,26-19.7,41.7-25.4c14.3-5.2,28.6-10.4,43.9-11.9"/>
<path d="M173.9,346.5c-14-2.4-29.8-5.5-44.5-12.8c-2.9-1.5-6-2.7-8.9-4.2c-4.9-2.4-5.4-4.3-1.9-8.5c6.8-8.3,13.9-16.3,20.7-24.7
	c6.5-8,12.6-16.2,19-24.2c4.3-5.3,5.9-5.6,11.9-2.4c11.8,6.1,23.9,10.4,37.4,11.1c8.8,0.4,9.8,2.9,5.5,10.6
	c-9.1,16-18.1,32.1-27.3,48.1C183.7,343.2,181.6,347.5,173.9,346.5z"/>
<path d="M106.3,192.5c1,1.6,2.5,3,2.9,4.7c2.6,13.1,8.8,24.4,15.8,35.5c3.6,5.6,3.3,5.5-1.7,9.4c-8.7,7-17.1,14.3-25.7,21.5
	c-7.9,6.6-15.8,13-23.7,19.6c-3,2.5-5.7,2.1-7.9-0.7c-2.4-3.1-5.1-6.3-6.5-9.9c-5.5-13.3-10.9-26.7-15.6-40.3
	c-2.8-8.1-1.4-9.9,6.3-13.6c16.6-7.9,33.3-15.9,49.9-23.8C101.9,194.1,103.6,193.6,106.3,192.5z"/>
<path d="M220.4,258.5c-10.2-0.2-21.9-0.4-32.8-5.6c-18.7-8.8-35.4-19.6-45.9-38.4c-5.8-10.3-11.1-20.5-12.5-32.3
	c-0.6-5.4,1-7.3,6.3-7.8c3.7-0.3,5.9,0.9,6.1,4.9c0.9,18.2,10.7,32.7,22.8,44.5c12.7,12.4,28.4,20.6,46.9,23
	c16.3,2.1,31.8,0.2,46.7-5.5c10.5-4,20-10.3,27.8-18.6c7.9-8.3,14.9-17.5,18.3-28.6c1.5-5,2.4-10,7.4-12.7c1.9-1.1,4-1.8,6-2.7
	c0.4,2.2,1.1,4.3,1.1,6.5c0.1,10.5-4.5,19.5-9.9,27.9C288.4,244.5,259.8,260.4,220.4,258.5z"/>
<path d="M150,114c1.5-2.1,2.6-4.6,4.5-6.3c24.8-23.1,54.1-32.6,87.7-26.9c12.9,2.2,25.5,6.2,36.4,13.9c1.1,0.8,2.5,1.5,3.4,2.5
	c1.9,2.1,1.7,4.1-1.4,4.3c-7.2,0.5-14.4,0.8-21.3-2.5C236.3,88,213.2,88.1,190,98.4c-11.9,5.3-23.9,10.6-35.8,15.8
	c-1,0.4-2.1,0.5-3.1,0.7C150.7,114.6,150.3,114.3,150,114z"/>
</svg>
