<?xml version="1.0" encoding="utf-8"?>
<!-- Generator: Adobe Illustrator 26.3.1, SVG Export Plug-In . SVG Version: 6.00 Build 0)  -->
<svg version="1.1" id="Layer_1" xmlns="http://www.w3.org/2000/svg" xmlns:xlink="http://www.w3.org/1999/xlink" x="0px" y="0px"
	 viewBox="0 0 400 400" style="enable-background:new 0 0 400 400;" xml:space="preserve">
<path d="M254.9,85.6c2-0.9,4.1-1.7,6.1-2.7c1.3-0.7,2.3-1.9,3.6-2.7c10.6-6.9,12.1-4.3,17.8,5.2c0.9,1.4-0.3,4.3-0.9,6.4
	c-0.7,2.5-1.7,5-2.7,7.4c-0.9,2-1.7,4.4-3.3,5.7c-8.6,6.6-17.5,12.8-26.2,19.3c-9.4,7-18.5,14.2-28,21.2
	c-10.3,7.6-20.7,14.9-31.1,22.4c-4,2.9-7.7,6.1-11.8,8.7c-2,1.3-4.8,2.4-6.9,2c-4.3-0.9-7.3,0.1-10.4,2.9c-2.7,2.5-6,4.5-9,6.8
	c3.4,7.1,4.4,13.3,0.8,20.1c-2,3.7-2.4,8.4-2.9,12.7c-0.2,1.5,1.6,3.2,2.3,4.8c0.4,1.1,0.9,2.7,0.4,3.3c-0.6,0.8-2.2,1.2-3.3,1
	c-5.8-0.8-8.6-4.8-7.8-10.7c0.7-5.8-0.2-6.7-5.6-5.1c-6.8,1.9-13.6,3.8-17.7,11.1c3.5,2.7,7.1,5.4,10.6,8.1
	c-0.3,0.6-0.5,1.1-0.8,1.7c-5.7,1.1-11.3,0.9-16.5-2.8c-4-2.9-6.2-2.2-8.2,2.3c-1.7,3.6-0.9,7.1,0.7,10.5c1.1,2.3,2.3,4.6,3,7
	c0.9,3.1-0.2,5.7-2.9,7.8c-8.5,6.7-10.4,13.1-7.2,23.9c0.7,2.5,1.8,4.8,2.1,7.3c0.6,5.2,1.4,9.8,6.8,12.7c2.3,1.3,3.7,4.6,5,7.3
	c2.4,4.9,1.7,7.6-2.6,11.1c-5.6,4.6-11.4,9-16.9,13.7c-7.6,6.6-16.9,6.5-26,6.3c-1.8,0-4.3-1.6-5.2-3.2c-3-5-6.9-9.9-5.4-16.5
	c0.3-1.4,0-3-0.4-4.4c-3.7-13.8-3.8-27.8-2.6-41.9c0.8-9.6,1.5-19.2,6.6-27.7c2.7-4.5,5.6-9,8.8-13.1c2.5-3.3,2.9-4.1,0.4-9.8
	c-2.5,0.9-5.1,1.6-7.4,2.8c-2.6,1.3-4.9,1.4-6.9-0.9c-2.8-3.2-5.7-6.4-8.1-9.8c-3.1-4.4-2.6-8.4,1.6-11.9c5.1-4.2,9.5-8.7,12.7-14.7
	c2.8-5.1,7.6-8.4,14.3-8c1.9,0.1,4.2-0.8,5.8-2c4.8-3.2,9.3-6.7,14-10c0.9-0.6,1.8-1.4,2.8-1.5c6.7-0.9,11.6-5.1,16.7-8.9
	c2.4-1.8,4.7-3.4,5-7c0.1-1.2,1.5-2.5,2.6-3.4c7.2-5.3,14.4-10.5,21.8-15.6c2-1.4,4.4-2.4,6.8-3.1c4.5-1.2,8.1-3.7,10.6-7.6
	c3.9-6,9.1-10,16.2-11.4c1.8-0.4,3.8-1,5.3-2c5.8-3.9,11.6-8,17.2-12.2c5.1-3.8,10-7.9,15.3-11.6c3.8-2.7,5.7-6,6.4-10.5
	c1-5.9,7.5-11.9,13-10.7c6.5,1.5,10.6-1.6,15-4.9c6.8-5.2,8.2-4.9,14.2,2.9c4.2,5.4,3.6,10.1-1.8,14.3c-2.3,1.8-4.4,3.8-6.5,5.8
	C254.2,84.4,254.5,85,254.9,85.6z"/>
<path d="M129.7,336.6c4.2-9.3,9.4-15,18-17.7c16-5.1,32.1-10,47.8-15.9c23.1-8.8,45.7-18.8,66.9-31.6c20.7-12.5,40.2-27.1,53.6-47.6
	c11.8-18.2,14.9-38.2,5.7-59c-3.4-7.7-8.7-13.4-15-18.7c-7.4-6.3-15.4-11.3-24.4-14.8c-1.5-0.6-2.7-1.8-4.5-3c1-1.5,1.7-2.8,2.6-3.8
	c1-1.1,2.4-1.7,3.5-2.7c8.2-7,16.3-7,25.6-1.6c12.5,7.3,25.4,14,34.1,26.2c13.5,18.9,16.4,39,7.4,61c-9.6,23.4-26.8,39.9-46.2,54.9
	c-13.1,10.1-27.4,18-41.5,26.3c-3.1,1.8-6.5,3.3-9.7,4.8c-10.2,4.7-20.3,9.9-30.8,14c-24.2,9.5-48.6,18.2-73.9,24.5
	c-4.5,1.1-8.9,2.8-13.4,4.1C134.2,336.2,132.7,336.2,129.7,336.6z"/>
<path d="M155.3,309.8c1.6-6.8,8-14.9,14.4-16.8c14.2-4.2,27.1-11.1,40.6-16.9c15.2-6.6,29.2-15,42.3-24.9
	c8.8-6.6,17.4-13.9,23.3-23.3c12.5-20,15.2-39.7,0.8-61.8c-4.4-6.8-11.2-12.3-19.2-15.4c-6.2-2.4-7.2-5.5-0.9-10.4
	c1.8-1.4,3.9-2.6,5.9-3.9c3.1-2.1,6.5-2.3,9.7-0.4c11.7,7,24,13.4,31.1,25.8c7.7,13.4,10.4,27.6,6.4,43
	c-4.6,17.7-15.4,30.8-28.6,42.7c-16.8,15.2-36.2,25.9-56.1,36.1c-12.8,6.5-25.9,11.8-39.4,16.4c-7.8,2.7-15.5,5.9-23.3,8.7
	C160.1,309.4,157.8,309.4,155.3,309.8z"/>
</svg>
