<?xml version="1.0" encoding="utf-8"?>
<!-- Generator: Adobe Illustrator 26.3.1, SVG Export Plug-In . SVG Version: 6.00 Build 0)  -->
<svg version="1.1" id="Layer_1" xmlns="http://www.w3.org/2000/svg" xmlns:xlink="http://www.w3.org/1999/xlink" x="0px" y="0px"
	 viewBox="0 0 400 400" style="enable-background:new 0 0 400 400;" xml:space="preserve">
<path d="M286.2,123.7c3.1,2.3,6.6,4.3,9.4,7.1c11.8,11.8,22.1,24.6,30.3,39.5c11.1,20.1,15.7,41.3,15.2,63.7
	c-0.4,19.9-6,38.4-15.4,56.3c-8.4,16-19.9,28.8-33,40.6c-9,8.1-19.6,14.2-30.6,19.2c-3.1,1.4-6,3-9.1,4.4c-5.5,2.5-6.6,2-9.4-3.4
	c-2-3.8-3.9-7.7-6.4-11.1c-11.4-14.9-27.2-19.7-44.9-17.4c-17.1,2.2-29.4,11.7-36.6,27.6c-2.4,5.3-4,6.2-8.7,3.9
	c-9.9-4.9-20-9.4-29.2-15.5c-11-7.4-20.8-16.4-29.1-27.1c-23.3-30.2-33.6-64.1-27.8-102.1c2-12.9,6.9-25.1,12.5-37
	c8-16.9,19.8-30.5,33.7-42.6c0.8-0.7,1.8-1.3,2.8-1.9c0.3-0.2,0.8,0,1.9,0c-3,4.5-5.8,8.7-8.7,12.8c-7.5,10.6-13.6,22-16.1,34.8
	c-4,19.7-4.2,39.4,3.8,58.6c5.3,12.7,11.3,25,21,35.2c10.5,11,22,20.3,35.9,27c27.5,13.3,55.9,15.6,84.8,7.4
	c16.2-4.6,31.2-12.3,44.2-23.8c18-16,30.5-35.3,35.5-58.7c5.9-27.8,1.9-54.4-14.9-78.2c-4.1-5.8-8.3-11.7-12.4-17.5
	C285.2,124.8,285.7,124.3,286.2,123.7z"/>
<path d="M183.4,146.4c0,8.1,0.2,16.3-0.1,24.4c-0.2,5.8-1.2,6.6-6.9,6.7c-7.4,0.1-14.8,0.1-22.3,0c-6.4-0.1-7.7-1.4-7.7-7.5
	c-0.1-15.6-0.1-31.2,0-46.7c0-6.2,1.5-7.5,7.6-7.6c7.2-0.1,14.4-0.1,21.6,0c6.9,0,7.9,1,7.9,7.7c0,7.7,0,15.4,0,23
	C183.6,146.4,183.5,146.4,183.4,146.4z"/>
<path d="M251.4,182.8c0,7.7,0.1,15.3,0,23c-0.1,6.1-1.9,7.3-7.9,7c-6.5-0.3-13-0.4-19.5,0c-8,0.4-9.6-0.7-9.6-8.9
	c-0.2-14.9-0.2-29.8-0.2-44.6c0-5.4,0.9-6.5,6.2-6.7c8.3-0.3,16.6-0.4,24.9-0.3c4.8,0.1,5.9,1.2,6,6.1
	C251.5,166.5,251.4,174.7,251.4,182.8C251.4,182.8,251.4,182.8,251.4,182.8z"/>
<path d="M164.6,260.2c-5.6,0-11.2,0.2-16.8,0c-5.1-0.2-6.3-1.4-6.5-6.6c-0.3-5.2-0.2-10.4-0.2-15.5c0-0.9-0.1-2.1,0.4-2.6
	c3-3.6,5.6-7.2,5.9-12.3c0.1-1,3.2-2.6,4.9-2.6c8.7-0.3,17.5-0.2,26.2-0.1c3.3,0,4.9,2,4.8,5.2c-0.2,3.2,0.9,5.4,3.8,7.2
	c1.4,0.8,2.3,3.3,2.4,5.1c0.3,5.2,0.2,10.4-0.1,15.5c-0.2,4.8-1.7,6.4-6.7,6.6C176.8,260.4,170.7,260.2,164.6,260.2
	C164.6,260.2,164.6,260.2,164.6,260.2z"/>
<path d="M233.4,69.8c5.4,0,10.8-0.1,16.2,0c5.4,0.2,6.4,1.2,6.6,6.3c0.2,4.5,0.1,9,0,13.5c0,1.3,0,3.1-0.7,3.9
	c-3,3.2-4.7,6.5-4.4,11.2c0.2,2.8-2.9,3.8-5.5,3.8c-8.5,0.1-17.1,0.1-25.6,0.1c-3.2,0-5.2-1.6-5.1-5c0.1-3.6-0.2-6.6-4.3-8.2
	c-0.9-0.3-1.7-2.6-1.6-3.9c0.4-5.1,1.2-10.2,1.7-15.3c0.5-5.3,1.2-6.3,6.5-6.5C222.7,69.8,228.1,69.9,233.4,69.8
	C233.4,69.9,233.4,69.9,233.4,69.8z"/>
<path d="M232.9,116.2c3.8,0,7.6,0,11.4,0c5.6,0.1,7.1,1.5,7.2,7.3c0.1,5-0.1,9.9,0,14.9c0,4.1-1.8,6.4-6,6.5
	c-8.3,0.1-16.6,0.1-24.9,0.1c-3.5,0-5.5-1.7-5.6-5.3c-0.1-5.9-0.2-11.7-0.3-17.6c-0.1-3.6,1.7-5.5,5.3-5.5c4.3,0,8.5,0,12.8,0
	C232.9,116.4,232.9,116.3,232.9,116.2z"/>
<path d="M165.1,184.7c4,0,8.1,0,12.1,0c3.7,0,6,1.5,6,5.6c-0.1,5.4-0.1,10.8-0.1,16.2c0,3.9-2.2,5.7-6,5.7c-8.3,0-16.6,0-24.9,0
	c-3.9,0-5.6-2.2-5.6-6c0-5.2,0-10.4,0-15.6c0-3.9,1.9-5.9,5.8-5.9c4.3,0,8.5,0,12.8,0C165.1,184.8,165.1,184.7,165.1,184.7z"/>
<path d="M233.3,253.4c-3.8,0-7.6,0.2-11.5-0.1c-3-0.2-5.1-1.8-5.5-5c-0.3-3,1.5-4.7,4.2-5.2c3.7-0.7,4.5-3.2,4.5-6.5
	c-0.1-4.1-0.1-8.1-0.1-12.2c0.1-5.8,1.3-7,7.2-7.1c1.3,0,2.7,0,4,0.1c4.5,0.6,5.7,2.1,5.5,6.7c-0.2,4-0.2,8.1-0.5,12.1
	c-0.2,3.6,0.7,5.9,4.6,7c1.7,0.5,3.8,2.8,3.9,4.4c0.3,2.9-2,5.1-5,5.4C240.9,253.6,237.1,253.3,233.3,253.4
	C233.3,253.3,233.3,253.4,233.3,253.4z"/>
<path d="M165.8,75c3.6,0,7.3-0.5,10.7,0.2c2,0.4,4.4,2.4,5.2,4.2c1.1,2.8-1.3,4.7-3.9,5.1c-4.5,0.8-5,3.8-4.8,7.5
	c0.1,4.1,0.2,8.1,0.1,12.2c-0.1,6.5-1.8,7.8-9,7.5c-6.4-0.2-7.9-1.8-7.2-8.4c0.4-3.8,1.4-7.5,2.1-11.3c0.6-3.5,0.1-6.3-4-7.3
	c-3.3-0.8-5.1-3-4.4-6.4c0.7-3.6,3.8-3.3,6.5-3.4C160,74.8,162.9,74.9,165.8,75C165.8,74.9,165.8,74.9,165.8,75z"/>
<path d="M166.6,44.9c6.3,0,12.6-0.1,18.8,0c2,0,4.2,0,5.9,0.8c1.3,0.6,2.8,2.6,2.8,4c0,1.3-1.7,3.1-3.1,3.7
	c-1.8,0.8-3.9,0.7-5.9,0.7c-13.2,0.1-26.4,0.1-39.7,0.1c-0.9,0-1.8,0-2.7-0.1c-2.9-0.2-4.6-1.8-4.5-4.8c0-3.1,2-4.5,4.8-4.5
	C150.9,44.8,158.7,44.9,166.6,44.9C166.6,44.9,166.6,44.9,166.6,44.9z"/>
<path d="M233.5,274.7c7.2,0,14.4,0,21.6,0c1.1,0,2.6-0.4,3.3,0.1c1.5,1.1,3.2,2.5,3.5,4.1c0.2,1.1-1.5,3.1-2.9,3.9
	c-1.2,0.7-3,0.6-4.6,0.6c-14.2,0-28.4,0-42.6,0c-1.6,0-3.4,0.2-4.6-0.6c-1.5-1-3.3-2.9-3.2-4.3c0.1-1.4,2.3-2.8,3.8-3.8
	c0.8-0.5,2.2-0.1,3.3-0.1C218.7,274.6,226.1,274.6,233.5,274.7C233.5,274.7,233.5,274.7,233.5,274.7z"/>
<path d="M233.1,259.2c5.4,0,10.8-0.1,16.2,0.1c2.6,0.1,5.5,1.2,5,4.2c-0.3,1.9-2.6,3.9-4.5,5c-1.6,0.9-3.9,0.7-5.9,0.7
	c-7.4,0.1-14.9,0-22.3,0c-1.3,0-2.7,0-4-0.2c-3.1-0.5-5.9-1.7-6-5.3c-0.1-4,3.1-4.6,6.1-4.7c5.2-0.1,10.3,0,15.5,0
	C233.1,259,233.1,259.1,233.1,259.2z"/>
<path d="M166,59.8c4.9,0,9.9-0.1,14.8,0c2.8,0.1,5.7,0.9,5.8,4.4c0.1,3.7-2.8,5-5.9,5c-9.9,0.1-19.7,0.1-29.6,0.1
	c-3.3,0-4.9-2-4.8-5.2c0.1-3.2,2.2-4.2,5-4.2c4.9,0,9.9,0,14.8,0C166,59.8,166,59.8,166,59.8z"/>
</svg>
