<?xml version="1.0" encoding="utf-8"?>
<!-- Generator: Adobe Illustrator 26.3.1, SVG Export Plug-In . SVG Version: 6.00 Build 0)  -->
<svg version="1.1" id="Layer_1" xmlns="http://www.w3.org/2000/svg" xmlns:xlink="http://www.w3.org/1999/xlink" x="0px" y="0px"
	 viewBox="0 0 400 400" style="enable-background:new 0 0 400 400;" xml:space="preserve">
<path d="M241.6,282.3c4.8-4.2,9.6-8.4,14.3-12.7c12.8-11.4,18.7-26.1,20.1-42.7c0.2-2.3-1.5-4.9-2.5-7.2c-0.3-0.8-1.3-1.4-1.9-2.1
	c-7.3-7.2-7.4-7.2-1.5-15.3c1.8-2.4,2.1-4.5,1.1-7.3c-5.3-14.3-14.7-25.1-27.8-32.7c-4.9-2.8-10.2-5-15.5-7.1
	c-3.2-1.3-5.1-3.3-5.1-6.8c-0.1-6.3-0.1-12.6,0.1-18.8c0.1-3.7,1.6-4.8,5.2-3.8c5.1,1.5,10.4,2.4,14.7,5.9c2.6,2.1,5.9,3.4,8.8,5.3
	c17.5,11.6,29.7,26.9,34.3,47.7c0.7,3.3,2.1,6.5,3.6,9.5c0.5,1.1,2.3,1.8,3.7,2c14.7,2.3,29.3,4.6,44,6.7c9,1.3,18.1,2.4,27.1,3.7
	c1.2,0.2,2.4,0.8,3.8,2.2c-1.2,0.5-2.4,1.2-3.7,1.4c-18.2,2.8-36.5,5.5-54.7,8.2c-5.6,0.8-11.3,1.8-16.9,2.6c-2.1,0.3-3.3,1.3-4,3.4
	c-1.9,5.7-3.9,11.5-6.3,17c-2,4.7-4.1,9.5-7.1,13.6c-8.3,11.5-18,21.6-31.5,27.2c-0.5,0.2-1.1,0.2-1.6,0.3
	C241.9,282.6,241.7,282.4,241.6,282.3z"/>
<path d="M156.7,283.1c-6.6-3.6-13.3-7.1-18.9-12.3c-9.1-8.3-15.8-18.5-20.9-29.6c-2.4-5.1-3.8-10.8-5.4-16.2
	c-0.8-2.8-2.4-3.8-5.3-4.2c-20.3-2.9-40.7-6.1-61-9.1c-4-0.6-8.1-1.1-12.1-1.7c0-0.6-0.1-1.1-0.1-1.7c2.1-0.5,4.1-1.1,6.2-1.5
	c22-3.3,44.1-6.6,66.1-9.9c5.1-0.8,5.5-1.2,6.7-6.9c4.7-22.3,17-39.7,35.3-52.8c5.5-3.9,11.8-6.8,18.1-9.4c6-2.5,7.2-1.3,7.3,5.5
	c0.1,4.9-0.2,9.9,0.1,14.8c0.2,4.3-1.6,6.7-5.3,8.4c-4.6,2.2-9.2,4.5-13.7,7c-13,7.3-20.5,18.9-25.5,32.5c-0.4,1.2,0.2,2.8,0.7,4.2
	c0.3,0.8,1.2,1.4,1.8,2.2c5.9,6.9,5.9,6.9-0.1,13.5c-0.3,0.3-0.5,0.6-0.8,0.8c-8.2,5.4-7.5,13.2-5,20.8
	c5.1,15.8,12.8,30.1,27.1,39.7c2,1.3,3.8,3,5.7,4.5C157.4,282.1,157.1,282.6,156.7,283.1z"/>
<path d="M197.6,328c-3,0-6.1,0.1-9.1,0c-5.1-0.2-7.9-4.8-5.2-9c1.6-2.4,2.9-4.6,3.1-7.6c0.1-2.4,1.9-3.7,4.3-3.7
	c4.7-0.1,9.5-0.2,14.2,0.1c1.4,0.1,3.4,1.3,4,2.5c1.6,3.3,2.7,6.9,3.6,10.5c1.2,4.7-0.9,7.2-5.8,7.3C203.6,328,200.6,328,197.6,328z
	"/>
<path d="M199.2,329.5c4.7,0,9.5,0,14.2,0c1.3,0,2.7,0,4,0.3c2.2,0.5,3.2,2,3.1,4.1c-0.1,2.2-1.3,3.7-3.4,3.9c-3,0.2-6.1,0.2-9.1,0.2
	c-2.4,0-3.7,0.7-3.9,3.6c-0.2,4.4-1.8,5.6-6.1,5.4c-4-0.2-5.4-1.2-5.5-5.4c0-3-1.5-3.5-3.8-3.6c-2.5,0-4.9,0-7.4-0.2
	c-2.6-0.2-4.4-1.4-4.4-4.2c0.1-2.8,2-4,4.5-4.1C187.5,329.5,193.3,329.5,199.2,329.5C199.2,329.5,199.2,329.5,199.2,329.5z"/>
<path d="M198.1,72.7c-3,0-6.1-0.1-9.1,0c-5.1,0.2-7.9,4.8-5.2,9c1.6,2.4,2.9,4.6,3.1,7.6c0.1,2.4,1.9,3.7,4.3,3.7
	c4.7,0.1,9.5,0.2,14.2-0.1c1.4-0.1,3.4-1.3,4-2.5c1.6-3.3,2.7-6.9,3.6-10.5c1.2-4.7-0.9-7.2-5.8-7.3
	C204.1,72.7,201.1,72.7,198.1,72.7z"/>
<path d="M199.8,71.2c4.7,0,9.5,0,14.2,0c1.3,0,2.7,0,4-0.3c2.2-0.5,3.2-2,3.1-4.1c-0.1-2.2-1.3-3.7-3.4-3.9c-3-0.2-6.1-0.2-9.1-0.2
	c-2.4,0-3.7-0.7-3.9-3.6c-0.2-4.4-1.8-5.6-6.1-5.4c-4,0.2-5.4,1.2-5.5,5.4c0,3-1.5,3.5-3.8,3.6c-2.5,0-4.9,0-7.4,0.2
	c-2.6,0.2-4.4,1.4-4.4,4.2c0.1,2.8,2,4,4.5,4.1C188,71.2,193.9,71.2,199.8,71.2C199.8,71.2,199.8,71.2,199.8,71.2z"/>
<path d="M198.5,165.4c3.6,0,7.2-0.1,10.8,0c4.2,0.2,5.1,1,5.3,5c0.2,4.9,0.2,9.9,0,14.8c0,1.4-0.4,3.4-1.4,4.1
	c-3.1,2.4-3.2,5.2-2.7,8.6c0.3,1.8-0.4,3.8-0.1,5.7c0.3,2.1,0.8,4.5,2.1,6.1c1.6,1.9,2.4,3.8,2.3,6.1c0,4.6,0.1,9.1-0.1,13.7
	c-0.1,4.1-1.1,5.9-5.2,6.1c-7.5,0.5-15.2,0.5-22.7,0.1c-4-0.3-5.4-2.6-5.5-6.6c-0.1-4.4-0.3-8.7,0.1-13.1c0.1-1.9,1-4,2.1-5.6
	c1.7-2.3,2.6-4.5,1.5-7.4c-0.4-1-0.8-2.3-0.6-3.3c1.2-4.5,0.9-8.4-2.8-11.8c-0.9-0.8-0.7-2.9-0.7-4.4c-0.1-4.2,0-8.4,0.1-12.5
	c0.1-4.2,1.1-5.3,5.4-5.6C190.5,165.1,194.5,165.3,198.5,165.4C198.5,165.3,198.5,165.3,198.5,165.4z"/>
<path d="M184.3,129.6c0-8.8-0.1-17.5,0-26.3c0.1-6.1,0.9-6.7,7.1-6.6c4.4,0,8.8,0,13.1,0.1c4.8,0.1,5.9,0.9,5.9,5.6
	c0.1,18.3,0.1,36.5,0,54.8c0,4.1-1,4.9-5.2,5c-5.1,0.1-10.3,0.1-15.4,0c-4.5-0.1-5.4-0.8-5.5-5.3
	C184.2,147.8,184.3,138.7,184.3,129.6C184.3,129.6,184.3,129.6,184.3,129.6z"/>
<path d="M210.5,270.8c0,8.9,0.1,17.9,0,26.8c-0.1,5.1-0.9,5.9-6,6.1c-4.6,0.1-9.1,0.1-13.7,0c-5.1-0.1-5.9-0.9-6-6.1
	c-0.1-11.4-0.1-22.8-0.1-34.2c0-6.5-0.1-12.9,0.1-19.4c0.1-5.6,1.2-6.5,6.8-6.7c4-0.1,8-0.1,12-0.1c5.6,0.1,6.8,1.1,6.8,6.7
	C210.6,253,210.5,261.9,210.5,270.8C210.5,270.8,210.5,270.8,210.5,270.8z"/>
</svg>
