<?xml version="1.0" encoding="utf-8"?>
<!-- Generator: Adobe Illustrator 26.3.1, SVG Export Plug-In . SVG Version: 6.00 Build 0)  -->
<svg version="1.1" id="Layer_1" xmlns="http://www.w3.org/2000/svg" xmlns:xlink="http://www.w3.org/1999/xlink" x="0px" y="0px"
	 viewBox="0 0 400 400" style="enable-background:new 0 0 400 400;" xml:space="preserve">
<path d="M194.6,51.4c5.4-1.5,10.2-1.8,15.8,0.6c0.6,13.2,0.1,26.6,0.2,40c0.1,13.2,0,26.4,0,40c2.8,0.9,5.4,1.5,7.8,2.6
	c8.3,3.8,16.8,7.4,24.7,11.9c4.2,2.4,7.8,6.4,10.8,10.4c4.9,6.4,9.6,13.2,12.2,21c0.3,1,0.9,1.9,1.7,3.5c2.3,0.2,5,0.7,7.6,0.7
	c25.1,0,50.2,0,75.3,0c2.7,0,5.3,0.3,8.2,0.5c2.1,5,2,9.5,0.1,14.7c-2.7,0.2-5.4,0.6-8,0.6c-24.3,0-48.5,0-72.8,0
	c-2.9,0-5.7,0.4-9.1,0.6c-3.6,36.1-24.6,55.7-58.8,63.3c0,5.8,0,11.5,0,17.1c0.1,17.6,0.2,35.3,0.2,52.9c0,2.2-0.6,4.4-0.9,6.4
	c-5.8,2.1-9.3,2.1-15.4-0.3c-0.9-12-0.3-24.6-0.4-37.1c-0.1-12.6,0-25.1,0-38.4c-1.9-0.6-4-1.3-6.2-1.7c-13-2.4-25-7.5-34.5-16.7
	c-10.7-10.4-18.7-22.6-19.5-38.3c-0.3-6.5-1.7-7.7-8-7.7c-24.7,0-49.4,0.1-74,0.2c-1.8,0-3.7,0-5.5,0c-3.1-5.3-2.1-10-1.1-15.4
	c2.8-0.2,5.3-0.6,7.7-0.6c23.8,0,47.7,0,71.5,0c3.3,0,6.5-0.5,9.5-0.8c2-4.1,3.7-7.5,5.3-10.9c5.5-11.7,13.5-20.8,25.1-27
	c8.2-4.4,16.2-8.6,25.4-10.2c3.2-0.6,4.6-2.6,4.7-5.7c0.1-1.9,0.1-3.8,0.1-5.7c0-22.3-0.1-44.5-0.1-66.8
	C194.2,54.1,194.4,53,194.6,51.4z M192.1,145.4c-15.8-0.3-39.9,18.2-43.4,35.4c3.3,0.8,6.6,1.6,10.8,2.7c0.1,3.1,0.5,6.1,0.3,9.1
	c-0.3,4.2-1.8,5.4-6,5.7c-2.2,0.1-4.4,0-6.4,0c-5.5,21.9,21.4,51.6,45.9,50.7c0.4-5,0.8-10.1,1.2-15.3c5.7-1,10.5-1.9,14.9,0.4
	c2.7,5.3-1,11,2.4,15.6c25.7-3.2,48.5-28.7,44.7-50.8c-3.6-0.5-7.3-1.1-11.2-1.7c-0.9-5.3-1.3-10,0.7-14.6c2.9-0.4,5.4-0.8,7.9-1.2
	c-0.7-15.6-25.9-36.3-42.5-34.9c-0.5,5.3-1.1,10.8-1.6,16.2c-5.3,1.5-9.9,1.8-14.5,0C192.8,156.9,196.2,150.4,192.1,145.4z"/>
<path d="M80.1,210.2c8.7,0,16.3,0,24.7,0c3.5,12.3,6.4,24.7,13.9,35.3c7.4,10.3,15.8,19.7,26.3,26.6c10.6,7,21.8,13.1,34.5,14.8
	c2.4,5,3,14.5,1.5,24.5c-2.2,0-4.7,0.6-6.8-0.1c-17.9-5.8-35.4-11.8-50.4-24.1c-12.7-10.4-23.1-22.2-30.9-36.4
	c-5.5-10.1-9.8-20.8-12.2-32.2C80.2,216.1,80.4,213.6,80.1,210.2z"/>
<path d="M322.7,210.7c0,12.2-4.5,22.7-8.9,33c-9.8,22.9-26.3,40.2-47.6,52.5c-12.7,7.4-26.5,12.8-40.9,15.7
	c-2.4-5.3-2.6-17.9-0.8-24.4c38-12,64.6-35.4,73.1-76.7C305.8,209.4,314,209.5,322.7,210.7z"/>
<path d="M180.5,81.5c2.2,7.9,0.9,15.6,1.1,23.8c-35.7,8.7-60.8,29.2-73.7,64.4c-7.9,1.6-16.1,1.3-25.4,0.5
	c3.6-16.2,9.7-30.5,19.6-42.7C122.4,102.7,147.8,86.3,180.5,81.5z"/>
<path d="M320.6,169.7c-9.1,1.5-16.9,1.4-25.2,0.3c-6.4-15.8-15.1-30-27.8-41.3c-12.5-11.2-27.2-18.3-43.7-22.3c0-7.8,0-14.8,0-22.3
	c6.1-2,11.7-0.3,17.2,1.4c11.3,3.5,21.4,9.5,31.3,15.7c11.1,6.9,20.1,16.3,28.2,26.5c7.1,8.9,12.6,18.7,16.1,29.6
	c0.6,2,1.8,3.8,2.4,5.8C319.8,164.9,320,166.9,320.6,169.7z"/>
</svg>
