<?xml version="1.0" encoding="utf-8"?>
<!-- Generator: Adobe Illustrator 26.3.1, SVG Export Plug-In . SVG Version: 6.00 Build 0)  -->
<svg version="1.1" id="Layer_1" xmlns="http://www.w3.org/2000/svg" xmlns:xlink="http://www.w3.org/1999/xlink" x="0px" y="0px"
	 viewBox="0 0 400 400" style="enable-background:new 0 0 400 400;" xml:space="preserve">
<path d="M156.5,249.4c1.7-0.2,4.8-0.9,7.9-0.9c3.5-0.1,7.2,0,10.6,0.6c3.8,0.8,5.2,2.9,5.1,6.1c-0.1,3-1.8,4.7-6,5.3
	c-2.1,0.3-4.2,0.3-6.3,0.2c-3.3-0.2-6.2,0.6-8.9,2.6c-1.5,1.1-3.4,1.7-5.1,2.5c-1,0.4-2.1,0.6-2.9,1.3c-3.6,3.3-7.5,6.2-10.4,10
	c-6.2,8.4-14.4,14.1-23.4,18.9c-4.5,2.4-8.9,4.7-13.3,7.3c-1.2,0.7-2.3,1.9-3,3.1c-1.2,2.2-2.2,4.6-3.2,6.9
	c-2.3,5.3-7.1,8.3-12.7,6.8c-4.5-1.2-8.7-3.1-13-4.9c-2.9-1.2-5.7-2.6-8.5-4.2c-3.5-1.9-6.8-4.1-10.2-6.2c-1.4-0.9-2.7-2-4.1-2.9
	c-3.8-2.5-4.5-4-2.9-8.4c1.3-3.8,2.7-7.6,4.2-11.3c1.5-3.4,1.1-6.6-0.4-9.8c-1.7-3.6-3.4-7.3-5.7-10.6c-2-3-2.8-6-2.9-9.5
	c-0.1-3.6-0.4-7.2-1.1-10.7c-0.4-2-1.9-3.7-2.5-5.7c-0.7-2.1-1.1-4.4-1.2-6.6c0-0.8,0.9-2,1.7-2.5c5.7-3.5,12.5-1,14.8,5.3
	c1.1,3.1,2.1,6.4,3.8,9.2c2.4,3.9,5.9,4,7.9,0.2c2.9-5.6,7.2-10.1,11.9-13.8c9-7.2,14.7-16.6,19.8-26.6c2.3-4.5,4.3-9.2,7-13.4
	c2-3.2,4.5-6.2,7.3-8.7c3.9-3.5,8.2-6.6,12.7-9.4c3.4-2.1,7.3-2,11-0.4c3.3,1.4,4.2,4.2,2.3,7.2c-0.8,1.2-2,2.1-3.1,3.1
	c-6.2,5.4-11.9,11.2-16.5,18.2c-2.9,4.4-3.5,8.9-3.5,13.8c0,1.1,0.7,2.7,1.5,3c0.8,0.3,2.4-0.5,3.1-1.3c2.9-3.1,5.3-6.6,8.4-9.4
	c3.6-3.2,7.7-5.8,11.5-8.8c3.5-2.7,6.9-5.5,10.4-8.2c1.5-1.1,3.2-2.1,4.9-2.5c4.9-1.2,9.8-2.2,14.8-3.3c4.6-1,6.7,0,8,3.8
	c1.8,5.2,0.9,7.9-3.5,9.9c-3.6,1.6-7.3,3.1-11,4.7c-0.6,0.2-1.3,0.2-1.8,0.6c-7.5,6.7-17.2,10.9-22.6,20c-1.4,2.3-2.2,4.9-3.1,7.5
	c-0.2,0.4,0.7,1.4,1.3,1.9c0.3,0.2,1.2-0.1,1.6-0.5c5.6-5.2,11.8-9.4,19-11.9c6.3-2.2,12.8-3.9,19.3-5.8c1.2-0.3,2.5-0.3,3.7-0.8
	c1-0.4,2.3-2.2,2.5-2c1.8,1.4,3.7,2.8,5,4.6c1.8,2.5,0.8,6.7-2.1,8.2c-5.2,2.7-10.6,5.2-16,7.5c-5.9,2.5-11,6-15.6,10.4
	c-1.2,1.1-2.8,1.8-4.1,2.9c-1.2,1.1-2.5,2.3-3.3,3.7c-1,1.8,0,3.5,2,3.7C150.4,249.5,152.7,249.4,156.5,249.4z"/>
<path d="M363.7,166.9c-2.1,1.4-4.1,0.9-6.1,0.4c-7.1-1.9-12.9,0.5-18.8,4.7c-4.4,3.1-9.6,5.2-14.7,7c-2.3,0.8-5.5,0.1-8-0.7
	c-6.6-2.1-13.2-4.4-19.7-6.9c-3-1.2-5.6-1-8.5,0.3c-3.4,1.6-7.1,2.7-10.6,4.2c-3.5,1.5-3.5,2.9-1.2,6.1c1.5,2,2.8,4.2,3.6,6.6
	c1.4,4.2,1.8,5.2,7.4,4.8c3.3-0.2,6.7-0.9,10-1.3c0.8-0.1,1.7-0.1,2.5-0.1c5.8-0.1,5.9-0.1,6,6c0,5.5,0,11-0.1,16.5
	c0,0.9-0.4,1.9-1.1,4.2c-0.9-2.2-1.4-3-1.5-3.9c-0.6-2.9-0.9-5.8-1.5-8.7c-1.2-6.4-2.1-6.8-8.5-4.9c-4.6,1.3-9.3,2.5-14.1,3.2
	c-1.3,0.2-3.3-1-4.1-2.2c-1.7-2.4-3.1-5-4.1-7.8c-2.1-5.6-5-9.6-11.2-11.8c-4.6-1.6-9.1-4.2-13.8-6c-5.1-1.9-8.2-1.8-11.1,2.7
	c-4.8,7.4-11.8,9-19.7,9c-1.7,0-3.4-0.1-5.1,0.1c-5.3,0.5-10.3,1.8-14,6.3c-2.4,2.9-5.4,5.4-8.2,7.9c-0.8,0.8-1.9,1.3-3.9,2.7
	c0.6-2.5,0.6-4,1.3-5.1c3-5.6,6.2-11,9.3-16.6c1.3-2.3,3.2-3.2,5.7-3.1c5.1,0.1,10.1-0.1,15.2,0c2.5,0,4.4-0.7,6.1-2.5
	c8.5-9.1,17-18.2,25.9-27c3.6-3.6,5.5-7.3,5.1-12.3c-0.2-2.9,0.1-5.9-0.1-8.9c-0.4-5,1.6-9,4.7-12.7c6.1-7.3,12.2-14.5,18.3-21.7
	c0.4-0.5,0.7-1.2,1.2-1.4c0.9-0.4,1.9-0.4,2.8-0.6c-0.1,0.8,0.1,1.7-0.3,2.3c-1.7,3.1-3.5,6.2-5.4,9.3c-2.5,4.1-5.1,8.2-7.7,12.3
	c-0.1,0.2-0.3,0.4-0.3,0.5c-0.6,2.4-2.3,5.5-1.4,7.1c1.3,2.6,4.4,0.6,6.8,0.2c8.1-1.4,16.2-2.8,24.3-3.8c4.8-0.6,9-1.9,11.8-6.2
	c0.6-1,1.8-1.7,3.5-3.2c-0.5,5.5-0.9,10-2.5,14.3c-1.1,2.9-4.1,3.2-6.8,3.8c-12.5,2.5-24.8,6-37.1,9.1c-1.9,0.5-3.1,1.7-2.9,3.6
	c1,8-5,12.1-9.1,17.2c-2.1,2.6-4.9,4.7-7.1,7.2c-1.8,2-1.3,3.9,1.2,4.1c4.3,0.3,9,0.8,13.1-0.3c9.5-2.7,18.7-6.2,28-9.6
	c2.8-1,5.4-0.9,8,0.2c3.9,1.6,7.7,3.5,11.7,4.8c5,1.6,10.1,2.9,15.2,4c1.1,0.3,2.6,0,3.6-0.6c4.7-2.7,9.1-5.9,14-8.4
	c4.6-2.3,9.4-3.7,14.3-0.2C357,163,361.3,163.2,363.7,166.9z"/>
<path d="M234.6,123.9c0.5,3.4-0.6,4.9-3.1,5.4c-1.2,0.2-2.5,0.3-3.8,0.3c-5.2,0.3-10.4,0.7-15.6,2.2c-5.2,1.5-10.8,1.4-16.3,1.6
	c-3.6,0.1-6.6,1.1-8.9,3.9c-2.5,3.1-5.2,6.1-7.7,9.2c-7.1,8.7-14.1,17.3-21.2,26c-0.3,0.3-0.5,0.7-0.9,0.9c-0.5,0.2-1.6,0.5-1.7,0.4
	c-0.4-0.7-0.9-1.7-0.6-2.2c1.8-3.5,3.9-6.9,5.8-10.4c1.9-3.5,3.7-7.1,5.4-10.7c3-6.1,5.8-12.2,8.9-18.2c1.8-3.6,4.9-5.7,8.9-6.5
	c8.7-1.6,17.4-3.1,26.1-4.9c3.7-0.7,7.3-1.8,10.9-3.1c1.2-0.4,2.3-2,2.7-3.2c0.6-1.8,0.6-3.7,0.6-5.6c0.1-7.8,0.1-15.7,0.1-23.5
	c0-1.5-0.1-3,0.2-4.4c0.1-0.7,0.9-1.2,1.3-1.8c0.4,0.4,1.1,0.7,1.3,1.2c0.4,1.2,0.9,2.4,0.9,3.6c0,9.8,3,19.2,4.5,28.8
	C233.2,116.9,234,120.8,234.6,123.9z"/>
<path d="M201.1,226.9c3.3-2.2,6.6-4.5,10-6.5c7.8-4.7,16.8-5.2,25.5-6.5c4.8-0.7,9.6-1.2,14.3-2.1c5-0.9,6.4-0.3,8.3,4.4
	c2.1,5.3,3.7,10.8,6,16c3,6.9,6.3,13.7,9.8,20.4c0.7,1.3,2.4,2.3,3.9,2.9c5.1,2,10.2,3.8,15.4,5.4c4.8,1.5,9.7,2.7,14.5,4.2
	c2.6,0.8,5.2,1.9,7.6,3.1c1.1,0.6,1.8,1.9,2.7,2.9c-1.4,0.3-2.7,0.9-4.1,0.8c-2.9-0.2-5.9-0.6-8.8-1.1c-10.6-1.7-21.1-3.5-31.7-5.2
	c-2.5-0.4-4.3-1.5-5.3-3.9c-0.7-1.8-1.4-3.5-2.1-5.3c-4.5-11.3-9-22.7-13.7-34c-1.8-4.3-3.3-4.9-7.8-4.2c-13.5,2-26.8,5.2-40,8.8
	c-1.4,0.4-2.8,0.5-4.2,0.8C201.4,227.4,201.2,227.1,201.1,226.9z"/>
</svg>
