<?xml version="1.0" encoding="utf-8"?>
<!-- Generator: Adobe Illustrator 26.3.1, SVG Export Plug-In . SVG Version: 6.00 Build 0)  -->
<svg version="1.1" id="Layer_1" xmlns="http://www.w3.org/2000/svg" xmlns:xlink="http://www.w3.org/1999/xlink" x="0px" y="0px"
	 viewBox="0 0 400 400" style="enable-background:new 0 0 400 400;" xml:space="preserve">
<path d="M253.4,197.2c-2.5,0.4-5,0.6-7.5,1.2c-8.8,2.4-17.5,5.3-26.4,7.5c-11.8,2.9-23.7,5.3-35.5,8.1c-6,1.4-12,2.9-17.9,4.7
	c-2.6,0.8-5,2.3-7.3,3.8c-4.9,3.3-8.6,2.7-11.8-2.3c-0.6-0.9-0.8-2-1.4-2.9c-1.6-2.5-3.3-2.9-5-0.5c-4.2,6.2-10.7,7.3-17.2,8.5
	c-4.7,0.9-4.9,1-2.7,5c0.9,1.8,2.4,3.7,0.2,5c-1.3,0.8-3.8,0.8-5.3,0.2c-2.5-1.1-4.8-2.7-6.9-4.5c-2.8-2.4-6-2.3-9.1-1.4
	c-1.5,0.5-3.4,2.3-3.7,3.8c-2.7,11.8-5.3,23.7-7.6,35.6c-0.4,1.9,0.8,4.1,1.3,6.2c1,4.2,2.6,8.7-1,12c-3.5,3.2-8.1,3.4-12.7,2.4
	c-4.8-1.1-9.6-1.9-14.4-2.9c-7.7-1.6-9.7-4.8-7.4-12.3c2.6-8.8,5.7-17.4,8.2-26.2c1.1-3.8,1.2-7.9,1.9-11.8c0.4-2.5,1.2-4.9,1.7-7.3
	c0.4-2,1-4.2,0.5-6c-1.4-5.3-3.5-10.4-4.9-15.8c-2.1-8.5,1.6-16.2,9.4-20.3c1.5-0.8,3.3-1.5,4.2-2.8c2.8-4.2,6.9-5.2,11.3-6.4
	c7.6-2.1,15-4.6,22.6-6.8c3.5-1,7-1.7,10.6-2.5c4.1-1,8.3-1.9,12.4-3c3.5-0.9,6.6-1,9.2,2.4c2.3,3,6,3.5,9.3,3
	c4.6-0.6,9.1-2,13.6-3.4c1-0.3,2.3-1.6,2.5-2.6c0.8-4.8,4.4-6,8.2-6.8c6.9-1.5,13.9-2.4,20.7-4c12.4-3,24.7-6.4,37.1-9.7
	c1.9-0.5,3.9-1.5,5.6-1c6.2,1.6,11.7-0.6,17.5-1.9c2-0.4,4.4-0.5,6.2,0.3c3.6,1.8,6.9,1.5,10.5,0.4c2-0.6,4.2-1.1,6.3-1.3
	c4.6-0.4,8,1.7,9.5,5.8c1.7,4.6,0.7,9.9-3,12c-2.9,1.6-3.3,2.7-1.9,5.8c3.3,7.2,0.5,12.5-7.1,14.5c-5.2,1.4-6.6,6.1-9,10
	c-1.3,2-1.3,5.4-2.9,6.6c-2.3,1.6-5.6,1.6-8.5,2.2c-0.8,0.2-1.7,0-2.5,0C253.4,197.7,253.4,197.5,253.4,197.2z"/>
<path d="M39.2,200.8c-0.2-11.4,0.2-21.5,3.3-31.5c3.4-11.1,8.7-21.2,14.3-31.3c8.7-15.6,21.2-27.5,35.6-37.8
	c13.1-9.4,27.7-16,43-20.6c14.5-4.3,29.8-5.3,45-4c12.1,1.1,24.2,2.6,35.6,7.2c1.6,0.6,3.3,1,4.7,2c4.6,3,6.6,5.7,3.2,10.9
	c-2.9,4.4-4.5,9.6-6.7,14.5c-2.8,6.1-5.6,7.3-11.7,5.1c-22.5-8-44.9-7.9-67.7-0.7C118,121,103,133.3,90.5,149.2
	c-3.1,4-5.1,8.8-7.2,13.4c-2.2,4.8-4.7,9.1-10.6,9.9c-1,0.1-2.3,0.6-2.8,1.3c-5,7.1-13.5,10.8-17,19.5c-1.9,4.7-2.6,8.8-1.2,13.5
	c1.3,4.7,2.3,9.5,3.4,14.3c0.3,1.2,0.7,2.9,0.2,3.7c-3.1,4.4-1.4,8.8-0.6,13.3c0.3,1.8,0,3.9-0.6,5.6c-1,3.1-3.8,3.6-5.8,1
	c-1.6-2.2-2.6-4.8-3.7-7.4C39.7,225.3,38.5,212.6,39.2,200.8z"/>
<path d="M169.2,324.1c-9.1-0.6-18.3-1.1-27.4-1.9c-8.4-0.7-16-4.4-23.6-7.7c-5.5-2.3-10.8-5.1-16.1-7.7c-8.1-3.9-8.8-5.8-4.6-13.7
	c1.5-2.8,3.6-5.3,5.2-8c2.5-4.1,2.4-4.8-0.7-8.4c-0.3-0.3-0.6-0.6-0.9-0.9c-2.7-3.2-3.3-5.7-1.5-7.3c2.6-2.3,5.2-0.9,7.7,0.4
	c0.7,0.4,1.5,0.9,2.1,1.5c10.6,10.5,24.3,14.8,38.1,18.3c19.5,4.9,38.5,3.1,57.7-3.4c12.1-4.1,22-10.9,31.8-18.4
	c1.5-1.2,3-2.4,4.2-3.9c9.6-10.9,18.4-22.3,22.3-36.7c1.7-6.1,3-6.8,9.2-6.3c6.6,0.6,13.2,1.3,19.6,2.5c5.6,1,6.6,3.1,5.4,8.6
	c-3.1,15.1-10.2,28.2-19.1,40.7c-8.3,11.7-19.1,20.5-30.1,29.2c-3.4,2.7-7.7,4.5-11.6,6.5c-5.5,2.9-10.9,5.7-16.5,8.5
	c-13.2,6.5-27.6,6.8-41.8,7.6c-3.2,0.2-6.4,0-9.6,0C169.2,323.9,169.2,324,169.2,324.1z"/>
<path d="M328.2,196c-3.2,0-6.4-0.2-9.6,0.1c-3.4,0.3-4.1,1.4-2.7,4.7c1.2,3,3,5.7,4.1,8.7c0.7,1.9,1.4,4.3,0.7,5.9
	c-1.1,2.6-3.9,1.9-6.3,1.5c-12-1.8-24-3.6-36-5.5c-2.5-0.4-4.9-1.3-7.2-2.3c-0.8-0.3-1.6-1.6-1.6-2.5c0-0.6,1.3-1.5,2.1-1.8
	c5.1-1.7,5.1-1.6,5.2-6.8c0-1.5,0.1-3,0.1-4.5c0.3-4.3,3-6.3,6.8-7.4c3.2-0.9,7.6-1.2,9.3-3.4c1.7-2.2,0.6-6.4,0.9-9.8
	c0.2-1.9,0.2-4.1,1.2-5.5c3.2-4.5,3.1-9.6,3.7-14.7c1-8.7-2.9-15-10.1-19.1c-2.6-1.4-6.1-1.7-9.1-1.6c-4.5,0.1-8.7,0.3-13.2-0.6
	c-4.4-0.8-9.2,1-13.8,1.4c-3.8,0.3-7.6,0-11.3,0.5c-4.6,0.5-9.2,1.4-13.8,2.3c-1.7,0.3-3.3,1-4.9,1.4c-2.5,0.7-3.7-0.4-3.6-2.9
	c0-1.1,0.1-2.2,0.5-3.1c5-12.2,9.9-24.4,15.1-36.4c1-2.3,2.3-5.8,5.6-5.4c3.5,0.5,2.7,4.3,3.5,6.8c1.3,3.6,2.4,7.3,3.9,10.8
	c1.1,2.8,2.6,3.2,4.8,1c3.3-3.3,6.3-6.9,9.3-10.5c5.1-6,10-12.2,15.1-18.2c3.9-4.6,6.4-4.1,8.4,1.7c1.3,3.6,2,7.4,3,11.1
	c1.5,6,3,12,4.3,18c0.7,3.3,2.8,3.9,5.6,3.9c9.2-0.2,18.3-0.3,27.5-0.7c9.4-0.4,18.7-1.2,28.1-1.9c0.4,0,0.9-0.2,1.3,0
	c1.9,0.6,5.2,0.9,5.4,2c0.5,1.9-0.3,4.7-1.5,6.2c-4.5,5.3-9.6,10.2-14.3,15.4c-5.2,5.6-10.2,11.3-15.4,17c-2.6,2.8-5.1,5.8-7.9,8.3
	c-2.5,2.3-2.3,4.3-0.3,6.6c1,1.1,2.2,2.1,3.1,3.2c5.3,6.1,10.8,12.1,15.9,18.3c1.1,1.4,1.8,4,1.3,5.6c-0.3,1-3.2,1.6-4.9,1.8
	c-2.7,0.3-5.5,0.1-8.3,0.1C328.2,195.9,328.2,195.9,328.2,196z"/>
</svg>
