<?xml version="1.0" encoding="utf-8"?>
<!-- Generator: Adobe Illustrator 26.3.1, SVG Export Plug-In . SVG Version: 6.00 Build 0)  -->
<svg version="1.1" id="Layer_1" xmlns="http://www.w3.org/2000/svg" xmlns:xlink="http://www.w3.org/1999/xlink" x="0px" y="0px"
	 viewBox="0 0 400 400" style="enable-background:new 0 0 400 400; opacity: 0.1" xml:space="preserve">
<path d="M208.3,7c0.2,0.1,0.4,0.2,0.6,0.2c27.6,1.3,53.6,8.2,78.2,20.7c17,8.7,32.3,19.6,46,32.9c19.6,19,34.5,41.1,44.8,66.3
	c5.6,13.9,9.5,28.2,11.7,43c1.8,11.6,2.5,23.3,2,35c-1.5,40.3-14.1,76.7-38.4,109c-23.8,31.6-54.5,53.8-91.9,66.6
	c-13.8,4.7-28,7.8-42.5,9.1c-35.7,3.4-69.8-2.5-102.2-17.9c-18.6-8.9-35.4-20.6-50.2-35c-22.4-21.7-38.7-47.4-48.7-77
	c-4.3-12.9-7.3-26.1-8.7-39.6c-0.4-4.1-0.7-8.3-1-12.4c0-0.2-0.1-0.4-0.2-0.7c0-5.6,0-11.2,0-16.8c0.1-0.2,0.2-0.4,0.2-0.6
	c0.3-7.6,1.2-15.2,2.4-22.7c3.3-20,9.7-39,19.1-57c9.6-18.5,22-34.9,36.9-49.4c13.7-13.2,29-24.2,46-32.9
	c24.6-12.5,50.6-19.4,78.2-20.7c0.2,0,0.4-0.1,0.6-0.2C197.1,7,202.7,7,208.3,7z M372.8,198c-0.1-94.3-75.7-170.7-169.3-172
	C106.8,24.6,30,102.1,28.8,195.7c-1.2,95.7,75.6,173.1,169.7,174.2C294.4,371.2,372.7,293.8,372.8,198z"/>
<path d="M144.4,310.6c-5.5,3.3-11.2,6-17.4,7.6c-12.2,3.3-23.2,0.8-33.3-6.6c-7.3-5.4-13.2-12.2-18.6-19.4
	c-7.6-10.2-14-21.2-20-32.5c0-0.1-0.1-0.2-0.2-0.6c2.2,2.3,4.1,4.4,6.2,6.4c8.8,8.8,18.1,17,29.2,23c4.8,2.6,9.9,4.7,15.5,5.1
	c7.8,0.5,15.6,0.9,23.5,0.2c4.2-0.3,8.4-0.9,12.6-1.7c5.5-1.1,10.2,0.2,14.2,4.1c3.4,3.2,5.8,7.2,7.9,11.4c1.6,3.1,3,6.3,4.6,9.3
	c0.5,1,1.3,1.9,2,2.8c0.5,0.6,1,0.6,1.5-0.1c0.4-0.6,0.8-1.2,1.1-1.8c2.6-5.3,4.1-11.1,5.7-16.7c2.9-10.6,4.6-21.4,5.8-32.3
	c1.5-12.7,2.5-25.4,2.8-38.2c0.3-13.3,0.2-26.7-0.9-40c-1.2-13.9-5.6-26.5-14.3-37.5c-2.6-3.3-5.5-6.3-9.1-8.6
	c-2.9-1.9-6.1-3.1-9.8-3.2c2.7-18.6,9.2-35.3,21.8-49.4c-0.1,0.1-0.1,0.3-0.2,0.4c-0.1,0.1-0.2,0.2-0.3,0.4c-8.9,11-9.1,25-2.1,37.1
	c1.9,3.2,3.9,6.2,6.8,8.4c2,1.5,4.2,2.6,6.4,3.8c2.5,1.4,4.9,2.7,6.8,4.8c1.3,1.5,1.9,3.2,1.9,5.1c0,0.4,0,0.8,0,1.2
	c0,57.3,0,114.7,0,172c0,3.3,1.6,5.9,3.8,8.1c1.3,1.3,2.9,1.2,4.1-0.2c1.8-2,2.9-4.4,2.9-7.2c0.1-13.9,0.2-27.8,0.3-41.7
	c0.1-10.4,0.2-20.8,0.2-31.2c0.1-7.7,0.2-15.3,0.2-23c0-0.4,0-0.9,0-1.3c0.5,6.1,0.8,12.3,1.4,18.4c1.6,17.3,4,34.5,9.6,51.1
	c1.8,5.4,4,10.6,7.2,15.3c1.5,2.2,3.4,4.2,5.2,6.2c0.6,0.7,1.5,0.4,2.1-0.7c1.4-2.5,2.7-5.1,4-7.6c2-3.7,4.1-7.4,5.9-11.2
	c1.6-3.4,4.3-5.4,7.6-6.7c4.9-2.1,9.9-2.1,15.1-1.3c4.7,0.7,9.3,1.6,14,2c9.2,0.9,18.1-0.8,26.7-3.9c10.7-3.9,20-10,28.1-17.9
	c3.9-3.8,7.5-8.1,11.2-12.2c0.2-0.3,0.4-0.5,0.8-0.7c-0.2,0.6-0.5,1.2-0.7,1.7c-5.9,13.3-13.1,25.7-22.6,36.7
	c-6,6.9-12.7,13-20.9,17.2c-12,6.1-24.1,6.1-36.1,0c-3-1.5-5.8-3.2-8.8-4.9c1.5,1.5,2.9,3,4.4,4.4c4.9,4.6,10.2,8.8,16.3,11.7
	c2.7,1.3,5.5,2.2,8.6,2.5c0.1,0,0.3,0.1,0.6,0.2c-0.5,0.4-0.8,0.6-1.1,0.9c-10.8,7.6-22.5,13.3-35,17.6c-12.6,4.4-25.5,7.1-38.8,8.1
	c-28,2.1-54.7-2.6-79.9-15.1c-5.8-2.9-11.4-6.2-16.6-10.2c-0.3-0.3-0.7-0.5-1.1-0.9c6.3-1.2,12.1-3.4,17.4-6.5
	C136.1,319.6,140.7,315.7,144.4,310.6z"/>
<path d="M148.1,48.9c-1.9,1.1-3.9,2.1-5.8,3.3c-12.4,7.4-23.2,16.6-31.5,28.7c-7.8,11.4-12,23.9-11.9,37.8
	c0.1,11.1,3.5,21.4,9.1,30.9c5.9,10,13.7,18.3,22.9,25.4c4.5,3.5,8.8,7.3,12.1,12.1c2.5,3.6,3.8,7.6,3.8,12
	c0,10.7,0.1,21.4,0.1,32.1c0,5.6,0,11.2,0,16.9c-1.9,0-4.1,0.2-6.1,0c-13.8-1.2-26-6.4-36.8-15.1c-9.6-7.8-16.8-17.5-22.7-28.4
	c-5.6-10.3-9.3-21.3-10.9-32.9c-1.3-9.1-1.4-18.3-0.6-27.5c1-11.3,3.4-22.2,7.5-32.8c8.7-22.2,23.6-39.1,44.2-51.1
	c8.1-4.7,16.7-8.4,25.6-11.3c0.3-0.1,0.6-0.2,0.9-0.2C148.1,48.8,148.1,48.8,148.1,48.9z"/>
<path d="M252.8,48.6c4.1,1.6,8.3,3.1,12.4,4.8c13.3,5.6,25.3,13.2,35.6,23.4c10.7,10.7,18.5,23.2,23.6,37.5
	c5.8,16.2,7.9,32.9,6.6,50c-0.8,11.6-3.3,22.8-8.2,33.4c-4.5,9.6-9.8,18.6-16.9,26.5c-10.3,11.4-22.7,19.3-37.8,22.7
	c-4.7,1.1-9.5,1.6-14.6,1.3c0-1,0-1.9,0-2.9c0.1-13.5,0.2-27.1,0.3-40.6c0-3.2-0.1-6.5,0.4-9.7c0.7-4.8,3.5-8.8,6.9-12.1
	c3.9-3.8,8.1-7.3,12.3-10.9c10.8-9.3,19.5-20.2,24.5-33.6c5.7-15.2,4.9-30.2-1.3-45.1c-5-12.1-13.2-21.9-23.1-30.3
	c-6.3-5.3-13.1-9.9-20.5-13.7c-0.2-0.1-0.3-0.2-0.5-0.3C252.6,48.8,252.7,48.7,252.8,48.6z"/>
<path d="M248,282c1.7-9.8,4.6-19,12.8-25.6c3.6-3,8-4.3,12.5-5.1c17.8-3.4,32.4-12.3,44.6-25.7c13.2-14.6,20.3-31.8,23.5-50.9
	c2-11.6,2.2-23.3,0.9-35c-0.5-4.7-1.5-9.3-2.3-13.9c0-0.2,0-0.3,0.2-0.6c0.7,1.5,1.5,3,2.2,4.5c6,12.4,10.3,25.4,12.6,39.1
	c3.2,18.5,1.7,36.7-4,54.5c-4.2,13.2-10,25.6-19,36.2c-12.3,14.6-28,23.8-46.7,27.3c-12.7,2.4-25.1,0.7-37-4.6
	C248.3,282.2,248.2,282.2,248,282z"/>
<path d="M152.6,282.1c-7.6,3.5-15.5,5.4-23.7,5.7c-14.2,0.5-27.2-3.6-39.3-10.6c-14-8.1-24.2-19.6-31.7-33.8
	c-7.1-13.4-11.3-27.7-13.2-42.7c-2-15.7,0-31.1,4.2-46.3c2.7-9.9,6.6-19.4,11.3-28.6c0.1-0.3,0.3-0.5,0.5-0.8
	c-0.6,3.8-1.3,7.5-1.8,11.3c-1.4,9.6-1.6,19.3-0.7,29c1,11.7,3.7,23,8,33.9c4.2,10.5,10.5,19.6,18.2,27.8
	c6.3,6.7,13.1,12.5,21.3,16.7c7.1,3.7,14.7,6.2,22.6,7.6c9,1.6,15.3,6.6,19.5,14.5C150.3,270.9,151.8,276.4,152.6,282.1z"/>
<path d="M206,107.2c6.5,0,13,0,19.4,0c0.5,0.9-0.1,1.1-0.7,1.3c-3.5,1.1-7.1,2.3-10.6,3.4c-0.8,0.2-1.5,0.4-2.3,0.8
	c-0.3,0.2-0.7,0.6-0.8,0.9c-0.2,0.6,0.2,0.9,0.8,1.1c4.1,1.3,8.3,2.6,12.4,4c0.3,0.1,0.6,0.1,0.8,0.3c0.2,0.2,0.3,0.5,0.5,0.7
	c-0.2,0.1-0.5,0.4-0.7,0.4c-1.5,0-3,0-4.4,0c-4.8,0-9.6,0-14.5,0c-0.7,3-1.4,6-2,8.9c-0.2,1-0.4,2-0.7,3c-0.1,0.2-0.4,0.4-0.6,0.5
	c-0.2-0.2-0.4-0.4-0.5-0.7c-0.1-0.3,0-0.6,0-0.8c0-11.6,0-23.2,0-34.8c0-0.3,0-0.6,0-1c0-0.2,0.3-0.4,0.4-0.5c0.2,0,0.4,0.2,0.5,0.3
	c0.1,0.1,0.1,0.4,0.1,0.6c0.8,3.5,1.6,6.9,2.4,10.4C205.8,106.4,205.9,106.8,206,107.2z"/>
<path d="M194.7,119.9c-1.1,0-2.2,0-3.4,0c-5.1,0-10.1,0-15.2,0c-0.4,0-0.7-0.3-1.1-0.4c0.3-0.3,0.6-0.7,0.9-0.8
	c4.2-1.4,8.3-2.7,12.5-4c0.6-0.2,1.1-0.3,1.1-1.1c0-0.8-0.5-0.9-1-1c-4.2-1.3-8.4-2.7-12.6-4.1c-0.4-0.1-0.7-0.5-1-0.8
	c0.1-0.1,0.1-0.3,0.2-0.4c0.4,0,0.9,0,1.3,0c5.7,0,11.4-0.1,17.1,0c1,0,1.3-0.3,1.5-1.2c0.8-3.5,1.6-6.9,2.4-10.4
	c0.1-0.4,0.4-0.7,0.6-1c0.1,0.4,0.4,0.7,0.4,1.1c0,11.8,0,23.7,0,35.5c0,0.4-0.3,0.8-0.5,1.2c-0.2-0.3-0.6-0.6-0.7-1
	C196.5,127.6,195.6,123.8,194.7,119.9z"/>
</svg>
