<?xml version="1.0" encoding="utf-8"?>
<!-- Generator: Adobe Illustrator 26.3.1, SVG Export Plug-In . SVG Version: 6.00 Build 0)  -->
<svg version="1.1" id="Layer_2" xmlns="http://www.w3.org/2000/svg" xmlns:xlink="http://www.w3.org/1999/xlink" x="0px" y="0px"
	 viewBox="0 0 693 800" style="enable-background:new 0 0 693 800; opacity: 0.1" xml:space="preserve">
<path d="M345,800c-1.6-1.1-3.2-2.4-4.8-3.3c-49.9-28.8-99.8-57.6-149.7-86.5c-1.6-0.9-3.1-1.8-5.1-3c6.1-10.4,11.9-20.3,18-30.6
	c2.1,1.2,3.9,2.2,5.6,3.2c44.7,25.9,89.3,51.7,133.9,77.8c3.2,1.9,5.4,1.8,8.5,0c44.6-26,89.3-51.9,133.9-77.8
	c1.7-1,3.4-1.9,5.5-3.1c6,10.3,11.8,20.1,17.9,30.5c-2,1.3-3.7,2.4-5.5,3.5c-49.7,28.7-99.5,57.4-149.3,86.2c-1.7,1-3.3,2.2-5,3.3
	C347.7,800,346.3,800,345,800z"/>
<path d="M0,414c11.5,0,22.9,0,35.2,0c0,2.3,0,4.3,0,6.4c0,51.5,0,102.9-0.1,154.4c0,3.6,1.1,5.6,4.3,7.4c45,25.9,90,51.9,135,77.8
	c1.6,0.9,3.1,1.9,5.2,3.2c-6,10.2-11.8,20.1-17.9,30.5c-2.1-1.1-3.8-2-5.5-3c-50.5-29.1-100.9-58.3-151.4-87.4
	c-1.6-0.9-3.3-1.6-4.9-2.3C0,538.7,0,476.3,0,414z"/>
<path d="M348,0c2.7,1.7,5.3,3.4,8,5c49.3,28.5,98.6,56.9,147.9,85.4c1.4,0.8,2.8,1.7,4.8,3c-5.9,10-11.8,19.7-17.8,29.8
	c-1.9-1-3.5-1.8-5-2.7c-44.7-25.7-89.5-51.4-134.1-77.3c-3.5-2-6-1.9-9.4,0.1c-44.5,25.8-89.1,51.4-133.7,77
	c-1.6,0.9-3.2,1.8-5.3,2.9c-6-10.1-11.8-20.1-17.9-30.5c2-1.2,3.7-2.2,5.3-3.2c50.3-28.8,100.5-57.6,150.8-86.5c1.6-0.9,3-2,4.4-3.1
	C346.7,0,347.3,0,348,0z"/>
<path d="M693,601c-40.1,23.2-80.1,46.3-120.2,69.5c-11.8,6.8-23.6,13.7-35.4,20.5c-1.4,0.8-2.9,1.6-4.9,2.6
	c-6-10.2-11.8-20.2-17.9-30.5c2.1-1.2,3.7-2.3,5.4-3.2c44.5-25.8,89-51.7,133.6-77.4c3.5-2,4.7-4.2,4.7-8.2
	c-0.1-51.3-0.1-102.6-0.1-154c0-2,0-3.9,0-6.4c11.9,0,23.4,0,34.8,0C693,476.3,693,538.7,693,601z"/>
<path d="M693,386c-11.3,0-22.6,0-34.8,0c0-2.2,0-4.1,0-6c0-51.1-0.1-102.3,0.1-153.4c0-5.1-1.7-7.6-6-10
	c-44.4-25.3-88.6-50.9-132.9-76.4c-1.5-0.9-3.1-1.8-4.9-2.9c6.1-10.4,12-20.4,18-30.6c18,10.5,35.6,20.6,53.1,30.8
	c34,19.7,68,39.4,102,59.1c1.7,1,3.6,1.6,5.3,2.4C693,261.3,693,323.7,693,386z"/>
<path d="M0,200c53.8-31,107.5-62,161.7-93.2c6,10,11.8,19.7,17.9,29.9c-1.9,1.1-3.5,2.2-5.1,3.1c-44.8,25.9-89.7,51.8-134.6,77.6
	c-3.4,2-4.8,4.1-4.8,8.1c0.2,51.3,0.1,102.6,0.1,153.9c0,2,0,3.9,0,6.5c-12.1,0-23.6,0-35.2,0C0,324,0,262,0,200z"/>
<path d="M435.7,638.6c3.5,5.5,6.6,10.6,10,15.9c-1.2,0.9-2.2,1.8-3.2,2.4c-30.5,19.1-61,38.2-91.4,57.4c-2.4,1.5-4.3,2.4-7.2,0.6
	c-31.5-19.7-63.1-39.2-94.7-58.7c-0.5-0.3-1-0.8-2-1.6c3.3-5.2,6.5-10.4,10-16c16.7,9.5,33.1,18.9,50.2,28.7
	c0.8-7.3,1.7-14,2.4-20.7c4.6-42.2,9.1-84.5,13.5-126.7c0.2-1.6-1.2-4.1-2.6-4.9c-19.8-11.6-39.8-23.1-59.8-34.4
	c-1.4-0.8-4.3-0.7-5.6,0.2c-39.3,28.6-78.6,57.4-117.8,86.2c-0.3,0.2-0.4,0.5-1.3,1.4c16.3,9.7,32.5,19.3,49.3,29.2
	c-3.2,5.7-6.3,11.1-9.4,16.8c-1.9-0.9-3.4-1.6-4.8-2.4c-31.1-16.7-62.1-33.5-93.3-50.1c-3.6-1.9-4.8-4-4.6-8.1
	c1.1-33.1,1.9-66.3,2.8-99.4c0.1-3.8,0-7.6,0-11.7c7,0,13.2,0,19.9,0c0,19.3,0,38,0,57.3c2-0.7,3.4-1.2,4.7-1.8
	c43-18.9,85.9-37.9,128.9-56.7c3.2-1.4,4.4-3,4.4-6.6c-0.2-22.7-0.1-45.3-0.1-68c0-2.7-0.2-4.5-3.2-5.8
	c-43.9-19.2-87.8-38.6-131.7-57.9c-0.7-0.3-1.5-0.5-2.9-1c0,19.2,0,37.9,0,57.2c-6.6,0-12.7,0-19.3,0c-0.2-2.2-0.5-4.8-0.6-7.4
	c-1-35-2-70-2.9-104.9c0-1.6,1.1-4,2.4-4.8c33.1-18.2,66.3-36.3,100.2-54.7c3.1,5.6,6.2,11,9.5,16.9c-16.5,9.6-32.7,19-49.4,28.7
	c1.8,1.4,3,2.5,4.3,3.4c37.4,27.5,74.9,55,112.3,82.7c3.1,2.3,5.2,2.1,8.3,0.3c19.3-11.3,38.6-22.3,58.1-33.3c3.6-2,4.6-4,4.1-8.2
	c-5.3-47.2-10.4-94.4-15.5-141.6c-0.1-0.5-0.2-0.9-0.6-2.2c-16.6,9.5-33,18.8-50,28.5c-3.3-5.3-6.6-10.5-10-15.9
	c1.2-0.9,2.2-1.8,3.3-2.5c30.8-19.2,61.7-38.4,92.4-57.6c2.4-1.5,4.1-1.9,6.7-0.2c31.2,19.6,62.5,39,93.7,58.5
	c0.7,0.4,1.3,1,2.4,1.8c-3.3,5.3-6.5,10.4-10,16.1c-16.6-9.6-32.8-19-49.6-28.7c-1.4,12.9-2.8,25.1-4.1,37.3
	c-3.9,35.4-7.7,70.9-11.7,106.3c-0.5,4.2,0.3,6.5,4.2,8.7c19.4,10.9,38.7,22.2,58,33.5c2.6,1.5,4.4,1.9,7.1-0.1
	c38.7-28.4,77.4-56.7,116.1-85.1c0.4-0.3,0.7-0.6,1.8-1.5c-16.5-9.6-32.8-19.1-49.4-28.7c3-5.7,5.7-11,8.6-16.6
	c1.4,0.6,2.6,0.9,3.7,1.5c32,17.1,64,34.3,96,51.4c2.4,1.3,3.8,2.5,3.7,5.6c-1.4,36.8-2.6,73.6-3.8,110.4c0,0.8-0.2,1.6-0.3,2.6
	c-6.2,0-12.2,0-18.8,0c0-19.3,0-38,0-57.4c-6.5,2.9-12.3,5.4-18,7.9c-38.2,16.8-76.5,33.7-114.8,50.5c-3.6,1.6-4.9,3.3-4.9,7.3
	c0.2,22.3,0.1,44.7,0.1,67c0,2.7,0.5,4.5,3.4,5.7c43.9,19.2,87.8,38.6,131.7,58c0.6,0.3,1.2,0.4,2.5,0.8c0-19.1,0-37.8,0-57
	c6.5-0.3,12.4-0.6,18.8-0.9c0.3,3.5,0.6,6.6,0.7,9.7c1.2,34.5,2.2,68.9,3.4,103.4c0.1,2.7-0.3,4.5-3.1,6
	c-32.7,17.3-65.2,34.8-97.8,52.3c-0.6,0.3-1.2,0.5-2.5,1c-2.8-5.4-5.6-10.8-8.7-16.6c16.4-9.5,32.7-19,49.4-28.7
	c-1.6-1.3-2.8-2.4-4.1-3.3c-37.9-27.8-75.8-55.5-113.6-83.4c-3-2.2-5.1-2.4-8.3-0.5c-18.8,11.1-37.6,22.1-56.7,32.7
	c-4.2,2.4-5.6,4.6-5,9.6c5.6,47,10.8,94,16.1,141c0.1,0.7,0.2,1.3,0.4,2.7C402.7,657.6,418.9,648.3,435.7,638.6z"/>
</svg>
