<?xml version="1.0" encoding="UTF-8"?>
<svg id="a" xmlns="http://www.w3.org/2000/svg" viewBox="0 0 400 400" style="background-color: #212121">
	<g>
		<path d="M120.17,110.74c-1.43-5.91-4.12-8.87-7.88-8.87-3.4,0-6,2.6-6,6.09,0,2.06,.9,4.3,2.51,6q1.52,1.7,7.88,6.54c5.02,3.94,6.9,5.64,8.87,8.06,2.42,2.96,3.85,6.9,3.85,10.93,0,9.05-6.63,15.22-16.39,15.22s-16.21-5.46-18.09-16.84l8.87-2.6c1.16,7.16,4.3,10.75,9.22,10.75,4.03,0,6.81-2.78,6.81-6.81,0-3.76-1.88-6.18-8.87-11.64-8.33-6.54-8.69-6.9-10.93-9.76-2.15-2.78-3.31-6.27-3.31-9.94,0-8.6,6.45-14.69,15.58-14.69,8.51,0,14.24,5.1,16.75,14.96l-8.87,2.6Z" style="fill:#ddd;"/>
		<path d="M168.44,153.81l-7.7-40.48-7.25,40.48h-8.6l-11.19-59.74h8.96l6.81,38.51,7.16-38.51h7.97l7.88,38.51,6-38.51h8.69l-10.12,59.74h-8.6Z" style="fill:#ddd;"/>
		<path d="M213.03,153.81h-9.22v-51.23h-11.55v-8.51h32.42v8.51h-11.64v51.23Z" style="fill:#ddd;"/>
		<path d="M262.73,134.83c0,6.72-.99,10.75-3.4,14.15-2.69,3.76-7.16,5.73-12.9,5.73s-10.21-1.97-12.9-5.73c-2.42-3.4-3.4-7.43-3.4-14.15v-21.76c0-6.72,.99-10.75,3.4-14.15,2.69-3.76,7.16-5.73,12.9-5.73s10.21,1.97,12.9,5.73c2.42,3.4,3.4,7.43,3.4,14.15v21.76Zm-23.37-.18c0,4.75,.27,6.36,1.16,8.15,1.07,1.97,3.31,3.22,5.91,3.22s4.84-1.25,5.91-3.22c.99-1.88,1.16-3.31,1.16-8.15v-21.4c0-4.84-.18-6.27-1.16-8.15-1.07-1.97-3.31-3.22-5.91-3.22s-4.84,1.25-5.91,3.22c-.9,1.79-1.16,3.4-1.16,8.15v21.4Z" style="fill:#ddd;"/>
		<path d="M280.46,153.81h-9.22v-59.74h14.42c5.46,0,8.96,1.07,11.82,3.58,3.58,3.04,5.37,7.61,5.37,13.52,0,7.52-2.69,12.72-8.06,15.49l8.78,27.14h-9.67l-7.88-24.54h-5.55v24.54Zm3.4-33.05c3.94,0,5.73-.45,7.16-1.88,1.52-1.52,2.24-3.94,2.24-7.25s-.72-5.64-2.24-7.16c-1.43-1.43-3.22-1.88-7.16-1.88h-3.4v18.18h3.4Z" style="fill:#ddd;"/>
	</g>
	<g>
		<path d="M76.1,221.8c-2.79-11.49-8.01-17.24-15.32-17.24-6.62,0-11.67,5.05-11.67,11.84,0,4.01,1.74,8.36,4.88,11.67q2.96,3.31,15.32,12.71c9.75,7.66,13.41,10.97,17.24,15.67,4.7,5.75,7.49,13.41,7.49,21.24,0,17.59-12.89,29.6-31.86,29.6s-31.52-10.62-35.17-32.74l17.24-5.05c2.26,13.93,8.36,20.89,17.93,20.89,7.84,0,13.23-5.4,13.23-13.23,0-7.31-3.66-12.01-17.24-22.64-16.19-12.71-16.89-13.41-21.24-18.98-4.18-5.4-6.44-12.19-6.44-19.33,0-16.72,12.54-28.56,30.3-28.56,16.54,0,27.69,9.93,32.56,29.08l-17.24,5.05Z" style="fill:#ddd;"/>
		<path d="M142.44,305.55h-17.93v-99.6h-22.46v-16.54h63.03v16.54h-22.64v99.6Z" style="fill:#ddd;"/>
		<path d="M239.08,189.41v78.7c0,14.63-1.74,22.11-6.62,28.73-5.05,6.79-13.58,10.45-24.03,10.45s-19.15-3.66-24.2-10.45c-4.88-6.62-6.62-14.1-6.62-28.73v-78.7h17.93v81.66c0,13.75,3.66,19.33,12.89,19.33s12.71-5.57,12.71-19.33v-81.66h17.93Z" style="fill:#ddd;"/>
		<path d="M274.6,305.55h-17.93v-116.14h53.11v16.54h-35.17v31.34h26.12v16.54h-26.12v51.71Z" style="fill:#ddd;"/>
		<path d="M338.5,305.55h-17.93v-116.14h53.11v16.54h-35.17v31.34h26.12v16.54h-26.12v51.71Z" style="fill:#ddd;"/>
	</g>
</svg>